<svg width="28" height="24" viewBox="0 0 28 24" fill="none" xmlns="http://www.w3.org/2000/svg">
<g clip-path="url(#clip0_126_180)">
<path d="M14.0268 0.0478428L14.0848 0.0445849C16.8602 0.175445 19.5655 1.27065 21.5813 3.17979C23.0141 4.53689 24.059 6.1606 24.716 8.05092C24.8531 8.4444 24.9557 8.76947 25.0239 9.02612C25.026 9.03426 25.0301 9.04177 25.0358 9.04804C25.0414 9.0543 25.0485 9.05914 25.0565 9.06216C25.0644 9.06518 25.073 9.0663 25.0815 9.06541C25.09 9.06453 25.0982 9.06167 25.1054 9.05707L25.9443 8.51083C25.9614 8.49966 25.9768 8.48633 25.9902 8.47119C26.2801 8.13508 26.623 7.66757 27.1206 7.75934C27.5827 7.84404 27.7512 8.46956 27.8387 8.86106C27.8813 9.05074 27.9096 9.24458 27.9234 9.44259C27.984 10.3146 27.9608 11.1259 27.854 11.8763C27.8146 12.1526 27.8009 12.296 27.7648 12.5105C27.6383 13.2616 27.4721 13.9937 27.2661 14.7068C27.0915 15.3106 26.857 15.896 26.5628 16.4629C26.3583 16.8571 26.1042 17.1843 25.8005 17.4446C25.601 17.6158 25.3836 17.6605 25.148 17.5787C24.786 17.4533 24.5662 16.8815 24.4858 16.5443C24.4796 16.5188 24.4693 16.4944 24.4552 16.4721L24.4338 16.4373C24.4331 16.4258 24.4274 16.418 24.4169 16.414C24.4092 16.4111 24.4003 16.4138 24.3901 16.4221C24.125 16.9973 23.9555 17.3592 23.8815 17.5076C22.3114 20.6726 19.4616 22.8592 16.0038 23.6542C14.5137 23.9966 13.012 24.0361 11.4986 23.7725C9.42812 23.4115 7.46211 22.4596 5.85976 21.1141C5.68622 20.9682 5.53237 20.8301 5.3982 20.6998C5.38437 20.6864 5.37582 20.6685 5.37412 20.6494C5.37241 20.6302 5.37766 20.6112 5.38891 20.5955L5.48844 20.4565C5.49382 20.449 5.50077 20.4428 5.50882 20.4382C5.51686 20.4336 5.52582 20.4308 5.53509 20.4299C5.54436 20.429 5.55372 20.4301 5.56256 20.4331C5.5714 20.4361 5.5795 20.441 5.58633 20.4473C6.23419 21.0551 6.93164 21.5776 7.67867 22.0149C8.85227 22.7226 10.0999 23.2002 11.4215 23.4478C12.7621 23.6987 14.0988 23.703 15.4317 23.4609C17.7472 23.0401 19.892 21.9351 21.5387 20.2605C22.7236 19.0558 23.5969 17.6573 24.1587 16.0649C24.2009 15.947 23.9947 15.738 23.9296 15.6679C23.9272 15.6653 23.9241 15.6634 23.9206 15.6624C23.9172 15.6613 23.9136 15.6612 23.9101 15.662C23.9067 15.6627 23.9035 15.6644 23.901 15.6668C23.8985 15.6692 23.8966 15.6722 23.8957 15.6755C23.8757 15.7461 23.7816 15.9957 23.6135 16.4243C23.2001 17.4783 22.6198 18.4388 21.8837 19.3293C19.4015 22.3331 15.3732 23.7307 11.55 23.0661C10.4544 22.8757 9.39331 22.507 8.36664 21.9601C8.16065 21.8504 7.95156 21.7405 7.73937 21.6305C7.41198 21.4194 7.13818 21.2319 6.91797 21.0679C6.35068 20.6459 5.8295 20.1592 5.35445 19.6078C5.13534 19.3114 4.91987 19.0147 4.70805 18.7179C4.46195 18.374 4.26526 18.0663 4.11797 17.7948C3.76104 17.1371 3.46828 16.4964 3.23969 15.8726C2.8762 14.8801 2.6549 13.8247 2.57578 12.7065C2.55172 12.3626 2.54898 11.8821 2.56758 11.2649C2.59055 10.2129 2.74422 9.22956 3.02859 8.31481C3.18318 7.81852 3.41086 7.26649 3.71164 6.6587C3.82102 6.46974 3.93057 6.28422 4.04031 6.10214C4.87484 4.71246 5.97279 3.55825 7.33414 2.63952C9.3131 1.30413 11.5168 0.676983 13.9453 0.758069C18.6862 0.916621 22.7248 4.01653 24.1407 8.48857C24.1834 8.62323 24.2583 8.894 24.3655 9.30087C24.3671 9.30705 24.37 9.31281 24.3741 9.31774C24.3781 9.32268 24.3832 9.32668 24.389 9.32947C24.3948 9.33226 24.4011 9.33377 24.4075 9.3339C24.4139 9.33402 24.4203 9.33276 24.4262 9.3302L24.669 9.22757C24.681 9.2224 24.691 9.21348 24.6975 9.20213C24.704 9.19077 24.7067 9.17761 24.7051 9.16459C24.6901 9.0473 24.654 8.89219 24.5968 8.69925C24.0229 6.77128 23.055 5.11807 21.6929 3.73961C20.7388 2.77418 19.6733 2.01363 18.4964 1.45798C15.3333 -0.0363201 11.5598 -0.0531526 8.4082 1.56006C7.23643 2.15988 6.20065 2.92024 5.30086 3.84115C5.2937 3.84838 5.28427 3.85296 5.27412 3.85415C5.26398 3.85533 5.25373 3.85304 5.24508 3.84766L5.02578 3.70866C5.11292 3.56639 5.26075 3.40259 5.4693 3.21725C6.30784 2.47047 7.17956 1.85689 8.08445 1.37653C9.93362 0.394811 11.9144 -0.0480848 14.0268 0.0478428ZM2.93398 10.1968L2.85578 11.3865C2.80401 12.8963 3.02331 14.3407 3.51367 15.7195C3.72367 16.3103 4.01953 16.9277 4.40125 17.5716L4.58281 17.961C4.7775 18.3085 5.00026 18.6379 5.25109 18.9492C6.17677 20.0964 7.27763 21.0098 8.55367 21.6897C10.3368 22.6395 12.2746 23.0297 14.367 22.8603C15.9502 22.7316 17.477 22.2598 18.8377 21.46C20.8848 20.2571 22.3632 18.5707 23.2728 16.401C23.4092 16.0759 23.532 15.7429 23.6414 15.4019C23.6445 15.3923 23.6448 15.382 23.6423 15.3723C23.6398 15.3626 23.6345 15.3538 23.6272 15.347C23.3064 15.0553 22.9461 14.8299 22.5466 14.671C22.5426 14.6695 22.5384 14.6689 22.5342 14.6694C22.5301 14.6698 22.5261 14.6713 22.5226 14.6736C22.5191 14.6759 22.5163 14.679 22.5144 14.6826C22.5125 14.6862 22.5115 14.6903 22.5116 14.6944V15.549C22.5116 15.5565 22.5089 15.5637 22.5042 15.5695C22.4994 15.5752 22.4927 15.5791 22.4853 15.5805L19.25 16.2066C18.1985 16.3981 17.1471 16.5868 16.0956 16.7729C14.9942 16.968 13.8806 17.1659 12.7548 17.3664C11.2057 17.6422 9.2668 17.9916 6.9382 18.4144C6.65328 18.4665 6.20211 18.5778 5.87234 18.6077C5.80088 18.6138 5.69753 18.6002 5.56226 18.5669C5.4445 18.5351 5.32711 18.5 5.21008 18.4616C5.14919 18.4421 5.09888 18.4118 5.05914 18.3709C5.24289 18.4198 5.41023 18.4305 5.56117 18.403C9.36706 17.7094 13.2099 17.0164 17.0898 16.3239C18.4685 16.0779 19.9834 15.782 21.332 15.5338C21.3524 15.5302 21.6247 15.4757 22.149 15.3704C22.1647 15.3673 22.1788 15.3589 22.1889 15.3466C22.199 15.3343 22.2044 15.3189 22.2042 15.303L22.196 14.2898C23.0444 14.5939 23.7624 15.0757 24.3502 15.7353C24.3518 15.7371 24.3539 15.7384 24.3563 15.739C24.3587 15.7396 24.3612 15.7394 24.3635 15.7384C24.3659 15.7375 24.3679 15.7358 24.3693 15.7337C24.3707 15.7316 24.3715 15.7291 24.3715 15.7266C24.3471 15.0554 24.37 14.3823 24.4404 13.7072C24.4849 13.2602 24.5525 12.8156 24.6433 12.3736C24.7979 11.6221 24.9929 10.8706 25.2284 10.1192C25.3537 9.72006 25.5221 9.34214 25.742 8.99572C25.7433 8.9934 25.7438 8.99073 25.7435 8.9881C25.7432 8.98546 25.742 8.983 25.7402 8.98106C25.7383 8.97912 25.7359 8.97782 25.7333 8.97733C25.7307 8.97684 25.728 8.97719 25.7255 8.97834C25.6293 9.03228 25.5205 9.09671 25.3991 9.17164C24.961 9.44205 24.4896 9.64024 23.9427 9.83137C23.374 10.0305 22.7916 10.1262 22.1955 10.1186C22.1962 9.96983 22.1904 9.8178 22.178 9.6625C22.1627 9.47644 22.1552 9.32422 22.1555 9.20585C22.1588 7.99282 22.1437 6.8035 22.1102 5.63789C22.0365 5.294 21.9186 5.02848 21.7563 4.84133C20.0933 2.92784 17.8079 1.60947 15.2983 1.21852C12.863 0.838974 10.354 1.24024 8.21953 2.47336C7.41672 2.93707 6.71544 3.45798 6.1157 4.03608C5.20716 4.91137 4.46177 5.93074 3.87953 7.09418C3.39062 8.07119 3.07544 9.1054 2.93398 10.1968ZM22.4569 5.82522V9.84983C22.4569 9.85145 22.4572 9.85305 22.4578 9.85453C22.4585 9.85602 22.4594 9.85736 22.4606 9.85848C22.4618 9.8596 22.4632 9.86046 22.4647 9.86103C22.4662 9.8616 22.4678 9.86185 22.4695 9.86178C23.0171 9.84223 23.5428 9.72241 24.0466 9.50232C24.0582 9.4973 24.0675 9.48845 24.0731 9.47733C24.0787 9.46621 24.0802 9.45353 24.0773 9.44151C23.8742 8.61436 23.5838 7.81418 23.2061 7.04097C22.9852 6.58775 22.744 6.17979 22.4826 5.81707C22.4808 5.81468 22.4783 5.8129 22.4755 5.81198C22.4727 5.81106 22.4696 5.81105 22.4668 5.81195C22.4639 5.81285 22.4614 5.81461 22.4597 5.817C22.4579 5.81938 22.4569 5.82225 22.4569 5.82522ZM25.5068 17.2958C25.6518 17.2461 25.8059 17.1266 25.964 16.9412C26.0814 16.8034 26.2002 16.63 26.3184 16.4243C26.5626 15.9991 26.7981 15.4436 27.0063 14.8019C27.1189 14.4549 27.222 14.0869 27.3131 13.7067C27.5907 12.5523 27.7464 11.3402 27.7484 10.3168C27.7495 9.82082 27.7145 9.38252 27.6451 9.02395C27.5882 8.72987 27.5089 8.49333 27.4099 8.32241C27.3376 8.1968 27.2551 8.10756 27.1638 8.05635C27.0155 7.97228 26.8465 7.98975 26.6651 8.10793C26.5499 8.18271 26.4306 8.29731 26.3096 8.44947C26.1796 8.61309 26.0484 8.81938 25.9191 9.06359C25.6412 9.58841 25.3798 10.2738 25.1617 11.0493C25.0263 11.5309 24.9101 12.0385 24.8177 12.5517C24.684 13.2954 24.6036 14.0323 24.5831 14.7009C24.5603 15.4507 24.6138 16.0887 24.7379 16.5481C24.8219 16.8589 24.9362 17.0821 25.0753 17.2068C25.2024 17.32 25.3482 17.3501 25.5068 17.2958Z" fill="#FDFCFC"/>
<path d="M3.71162 6.6586C3.67079 6.57535 3.60352 6.53191 3.50983 6.52829C3.50054 6.52799 3.49148 6.52534 3.4835 6.5206C3.47553 6.51586 3.46891 6.50918 3.46425 6.5012C3.4596 6.49321 3.45708 6.48418 3.45692 6.47495C3.45676 6.46572 3.45897 6.45661 3.46334 6.44847L4.39412 4.69951C4.47761 4.69118 4.61233 4.66259 4.79826 4.61372C4.91584 4.58331 4.98037 4.53661 5.01264 4.41824C5.03925 4.32231 5.07498 4.21897 5.11983 4.1082C5.13534 4.06966 5.13632 4.02685 5.12256 3.98765L5.02576 3.70856L5.24506 3.84756C5.25372 3.85295 5.26396 3.85523 5.27411 3.85405C5.28425 3.85286 5.29368 3.84828 5.30084 3.84105C6.20063 2.92014 7.23641 2.15978 8.40818 1.55996C11.5598 -0.0532521 15.3333 -0.0364195 18.4964 1.45788C19.6733 2.01354 20.7388 2.77408 21.6929 3.73951C23.055 5.11797 24.0229 6.77118 24.5968 8.69915C24.654 8.89209 24.6901 9.0472 24.7051 9.16449C24.7067 9.17751 24.704 9.19068 24.6975 9.20203C24.691 9.21338 24.681 9.2223 24.669 9.22747L24.4262 9.3301C24.4203 9.33266 24.4139 9.33392 24.4075 9.3338C24.4011 9.33367 24.3947 9.33216 24.389 9.32937C24.3832 9.32658 24.3781 9.32258 24.374 9.31764C24.37 9.31271 24.367 9.30695 24.3654 9.30078C24.2583 8.8939 24.1833 8.62313 24.1407 8.48847C22.7248 4.01643 18.6862 0.916522 13.9453 0.75797C11.5168 0.676884 9.31308 1.30403 7.33412 2.63942C5.97277 3.55815 4.87483 4.71236 4.04029 6.10204C3.93055 6.28412 3.821 6.46964 3.71162 6.6586Z" fill="#1A3158"/>
<path d="M22.1101 5.63782C21.8028 5.22009 21.4336 5.04217 21.0027 5.10407C20.6702 5.15131 20.1589 5.26968 19.7444 5.33592C18.7374 5.49665 18.0202 5.61791 17.5929 5.69972C16.8694 5.83819 16.1847 5.94027 15.4962 6.06244C13.3421 6.4447 10.739 6.9057 8.64388 7.26787C7.98435 7.3819 7.36748 7.52199 6.80966 7.65013C6.71341 7.67221 6.32185 7.74588 5.63498 7.87113C5.25508 7.94027 4.86425 8.01556 4.46248 8.09701C4.44549 8.1005 4.43024 8.1097 4.41928 8.12305C4.40833 8.1364 4.40234 8.15309 4.40232 8.17031V10.0132L2.93396 10.1967C3.07542 9.10534 3.3906 8.07113 3.87951 7.09411C4.46175 5.93067 5.20714 4.91131 6.11568 4.03601C6.71542 3.45791 7.41669 2.93701 8.21951 2.4733C10.354 1.24018 12.863 0.83891 15.2983 1.21846C17.8079 1.60941 20.0933 2.92778 21.7563 4.84126C21.9185 5.02841 22.0365 5.29393 22.1101 5.63782ZM15.9966 3.99149L13.7238 3.93991C13.7231 3.93987 13.7224 3.93967 13.7218 3.93932C13.7212 3.93897 13.7207 3.93848 13.7203 3.9379C13.72 3.93731 13.7197 3.93665 13.7197 3.93596C13.7196 3.93527 13.7197 3.93457 13.72 3.93393C14.0404 3.2447 14.3064 2.67077 14.5179 2.21212C14.5868 2.0628 14.6759 1.9276 14.753 1.78425C14.7539 1.78223 14.7541 1.77999 14.7535 1.77787C14.7529 1.77574 14.7517 1.77388 14.7499 1.77256C14.7481 1.77124 14.746 1.77056 14.7438 1.77061C14.7415 1.77066 14.7394 1.77145 14.7377 1.77285C13.3002 3.22805 11.8805 4.73321 10.4786 6.28832C10.4778 6.28941 10.4772 6.29076 10.4772 6.29217C10.4771 6.29357 10.4775 6.29496 10.4783 6.29612C10.4791 6.29728 10.4803 6.29815 10.4816 6.29861C10.483 6.29906 10.4844 6.29907 10.4858 6.29864C12.1253 5.68108 13.7608 4.99873 15.3923 4.25158C15.4689 4.21683 15.5668 4.17629 15.686 4.12995C15.8934 4.04959 15.9986 4.00814 16.0015 4.00561C16.0027 4.00453 16.0036 4.00314 16.0039 4.0016C16.0043 4.00006 16.0043 3.99845 16.0037 3.99695C16.0032 3.99545 16.0023 3.99413 16.001 3.99316C15.9997 3.99219 15.9982 3.99161 15.9966 3.99149ZM19.4441 4.92054C17.3317 5.16307 15.2106 5.46733 13.0807 5.8333C12.6683 5.90425 11.9404 6.05574 10.897 6.28778C10.8899 6.28931 10.8836 6.29315 10.8788 6.29874C10.8741 6.30432 10.8713 6.31133 10.8708 6.31873V6.31982C10.8707 6.32283 10.8712 6.32584 10.8724 6.32863C10.8736 6.33141 10.8753 6.33392 10.8775 6.33598C10.8798 6.33803 10.8824 6.33959 10.8853 6.34055C10.8882 6.34151 10.8912 6.34185 10.8943 6.34153C11.6293 6.26769 12.1247 6.21013 12.3807 6.16886C13.2178 6.03348 13.9416 5.9238 14.5523 5.83982C15.093 5.76561 16.5174 5.51565 18.8256 5.08995C18.8263 5.08959 19.034 5.04289 19.4485 4.94986C19.4522 4.94897 19.4554 4.9467 19.4575 4.94349C19.4597 4.94028 19.4605 4.93636 19.46 4.93248V4.93194C19.4592 4.92836 19.4571 4.9252 19.4542 4.92309C19.4512 4.92098 19.4476 4.92007 19.4441 4.92054ZM9.4456 4.97755C8.4018 5.75764 7.41487 6.56271 6.48482 7.39276C6.48105 7.39606 6.47819 7.40025 6.47651 7.40496C6.47482 7.40967 6.47437 7.41474 6.47519 7.41971C6.476 7.42467 6.47806 7.42938 6.48118 7.4334C6.48429 7.43742 6.48837 7.44062 6.49302 7.44271C6.5138 7.45212 6.53258 7.45592 6.54935 7.45411C6.84138 7.42515 7.13414 7.37556 7.42763 7.30534C7.5381 7.27891 7.61849 7.23239 7.6688 7.16579C8.22552 6.43457 8.78862 5.7495 9.3581 5.11058C9.40039 5.06316 9.43375 5.0228 9.45818 4.9895C9.4595 4.9878 9.46015 4.98568 9.45999 4.98353C9.45983 4.98139 9.45887 4.97938 9.45731 4.9779C9.45575 4.97641 9.45369 4.97556 9.45152 4.97549C9.44936 4.97543 9.44725 4.97616 9.4456 4.97755Z" fill="#F26298"/>
<path d="M16.0015 4.00563C15.9986 4.00817 15.8934 4.04961 15.686 4.12998C15.5668 4.17631 15.4689 4.21685 15.3923 4.25161C13.7608 4.99876 12.1253 5.68111 10.4858 6.29866C10.4844 6.2991 10.483 6.29909 10.4816 6.29863C10.4803 6.29818 10.4791 6.29731 10.4783 6.29615C10.4775 6.29498 10.4771 6.2936 10.4772 6.29219C10.4772 6.29079 10.4778 6.28944 10.4786 6.28835C11.8805 4.73323 13.3002 3.22808 14.7377 1.77287C14.7394 1.77147 14.7415 1.77068 14.7438 1.77063C14.746 1.77058 14.7481 1.77127 14.7499 1.77258C14.7517 1.7739 14.7529 1.77577 14.7535 1.77789C14.7541 1.78001 14.7539 1.78226 14.753 1.78427C14.6759 1.92762 14.5868 2.06283 14.5179 2.21215C14.3064 2.67079 14.0404 3.24473 13.72 3.93396C13.7197 3.9346 13.7196 3.9353 13.7197 3.93599C13.7197 3.93668 13.72 3.93734 13.7203 3.93793C13.7207 3.93851 13.7212 3.939 13.7218 3.93935C13.7224 3.93969 13.7231 3.9399 13.7238 3.93993L15.9966 3.99151C15.9982 3.99164 15.9997 3.99222 16.001 3.99319C16.0023 3.99416 16.0032 3.99547 16.0037 3.99697C16.0043 3.99847 16.0043 4.00009 16.0039 4.00163C16.0036 4.00317 16.0027 4.00456 16.0015 4.00563Z" fill="#DC1B63"/>
<path d="M4.3941 4.69958L3.46332 6.44854C3.45895 6.45669 3.45674 6.4658 3.4569 6.47503C3.45706 6.48425 3.45958 6.49329 3.46424 6.50127C3.46889 6.50926 3.47551 6.51594 3.48349 6.52068C3.49146 6.52542 3.50052 6.52806 3.50981 6.52836C3.6035 6.53198 3.67077 6.57542 3.7116 6.65868C3.41082 7.26646 3.18314 7.8185 3.02856 8.31479C2.74418 9.22954 2.59051 10.2129 2.56754 11.2648L2.27168 11.4484C2.2646 11.4527 2.2587 11.4588 2.2545 11.466C2.2503 11.4732 2.24794 11.4813 2.24762 11.4896C2.22501 12.0681 2.24634 12.6614 2.3116 13.2695C2.33275 13.4676 2.36028 13.659 2.39418 13.844C2.45106 14.1524 2.49098 14.4945 2.58778 14.8643C2.68621 15.2384 2.76824 15.6484 2.89184 15.9704C3.11059 16.541 3.30692 17.0922 3.63887 17.6161C3.64835 17.631 3.65236 17.6636 3.6509 17.7139L3.53824 18.0261C3.43689 17.9758 3.35322 17.9095 3.28723 17.8274L3.21395 17.6471C2.95965 17.0911 2.68895 16.5296 2.52817 15.9389C2.44759 15.6446 2.34861 15.2891 2.23121 14.8724C2.19658 14.7501 2.17598 14.6317 2.16942 14.5173C2.16904 14.512 2.16694 14.5069 2.1634 14.5027C2.15028 14.4882 2.12767 14.4824 2.09559 14.4853C2.07627 14.3347 2.05002 14.1856 2.01684 14.0379C1.97746 13.8601 1.95212 13.7112 1.94082 13.591C1.88796 13.0241 1.85077 12.5032 1.82926 12.0283C1.81759 11.7687 1.82835 11.4887 1.86153 11.1883C1.88486 11.2408 1.89926 11.3095 1.90473 11.3946C1.90534 11.4049 1.90815 11.415 1.91295 11.4241C1.91776 11.4333 1.92446 11.4414 1.93262 11.4478C1.94078 11.4542 1.95021 11.4588 1.96029 11.4613C1.97038 11.4639 1.98089 11.4643 1.99113 11.4625L2.17543 11.4304C2.197 11.4269 2.21681 11.4164 2.23182 11.4006C2.24683 11.3848 2.25622 11.3646 2.25856 11.343C2.29356 11.0339 2.32054 10.7104 2.33949 10.3727C2.34387 10.2945 2.3528 10.204 2.36629 10.1012C2.4002 9.85035 2.41442 9.69289 2.47293 9.42465C2.54403 9.09669 2.60418 8.66719 2.72449 8.31045C2.83496 7.98248 2.89785 7.72891 3.03949 7.44112C3.12371 7.27099 3.2165 7.07008 3.31785 6.83841C3.36488 6.73017 3.38129 6.62863 3.36707 6.53379C3.36424 6.51628 3.35531 6.50048 3.34192 6.48927L3.1434 6.3242C3.41246 5.77904 3.81988 5.28221 4.20653 4.81524C4.25319 4.75877 4.31572 4.72022 4.3941 4.69958Z" fill="#DC1B63"/>
<path d="M19.4441 4.92053C19.4476 4.92006 19.4512 4.92097 19.4541 4.92308C19.4571 4.9252 19.4592 4.92835 19.46 4.93193V4.93248C19.4605 4.93635 19.4596 4.94027 19.4575 4.94348C19.4554 4.94669 19.4522 4.94896 19.4485 4.94985C19.0339 5.04288 18.8263 5.08958 18.8256 5.08994C16.5174 5.51564 15.093 5.7656 14.5523 5.83981C13.9416 5.92379 13.2177 6.03347 12.3807 6.16886C12.1247 6.21012 11.6293 6.26768 10.8943 6.34153C10.8912 6.34184 10.8882 6.3415 10.8853 6.34054C10.8824 6.33958 10.8798 6.33802 10.8775 6.33597C10.8753 6.33391 10.8735 6.3314 10.8724 6.32862C10.8712 6.32583 10.8706 6.32282 10.8707 6.31981V6.31872C10.8712 6.31133 10.8741 6.30431 10.8788 6.29873C10.8835 6.29314 10.8899 6.2893 10.897 6.28777C11.9404 6.05573 12.6683 5.90424 13.0807 5.83329C15.2106 5.46732 17.3317 5.16306 19.4441 4.92053Z" fill="#FCFCE5"/>
<path d="M9.45824 4.98947C9.43381 5.02278 9.40045 5.06314 9.35816 5.11056C8.78868 5.74947 8.22558 6.43454 7.66886 7.16576C7.61855 7.23237 7.53816 7.27888 7.42769 7.30531C7.1342 7.37554 6.84144 7.42513 6.54941 7.45409C6.53264 7.4559 6.51387 7.4521 6.49308 7.44269C6.48843 7.44059 6.48435 7.43739 6.48124 7.43337C6.47812 7.42936 6.47606 7.42465 6.47525 7.41968C6.47443 7.41471 6.47489 7.40964 6.47657 7.40494C6.47825 7.40023 6.48111 7.39603 6.48488 7.39273C7.41493 6.56269 8.40186 5.75762 9.44566 4.97753C9.44731 4.97614 9.44942 4.9754 9.45158 4.97547C9.45375 4.97553 9.45581 4.97639 9.45737 4.97787C9.45894 4.97936 9.45989 4.98137 9.46005 4.98351C9.46021 4.98565 9.45957 4.98778 9.45824 4.98947Z" fill="#FDFCFC"/>
<path d="M22.1102 5.63778C22.1437 6.80339 22.1588 7.99271 22.1555 9.20574C22.1552 9.32411 22.1627 9.47633 22.178 9.6624C22.1904 9.81769 22.1962 9.96973 22.1955 10.1185L22.1922 12.9817L22.196 14.2897L22.2042 15.3029C22.2044 15.3188 22.199 15.3342 22.1889 15.3465C22.1788 15.3588 22.1647 15.3672 22.149 15.3703C21.6247 15.4756 21.3524 15.5301 21.3319 15.5337C19.9834 15.7819 18.4685 16.0778 17.0898 16.3238C13.2099 17.0162 9.36705 17.7093 5.56117 18.4028C5.41023 18.4304 5.24289 18.4197 5.05914 18.3708L4.58281 17.9609L4.40125 17.5715L4.40453 11.1703L4.40234 10.0132V8.17027C4.40235 8.15305 4.40835 8.13636 4.4193 8.12301C4.43026 8.10966 4.44551 8.10046 4.46249 8.09697C4.86427 8.01552 5.2551 7.94022 5.63499 7.87108C6.32187 7.74583 6.71343 7.67217 6.80968 7.65009C7.36749 7.52194 7.98437 7.38185 8.6439 7.26783C10.739 6.90565 13.3421 6.44466 15.4962 6.0624C16.1848 5.94022 16.8694 5.83814 17.593 5.69968C18.0203 5.61787 18.7374 5.4966 19.7444 5.33588C20.1589 5.26963 20.6702 5.15126 21.0027 5.10402C21.4337 5.04212 21.8028 5.22004 22.1102 5.63778ZM19.7219 8.11217C19.7192 8.10984 19.7161 8.10807 19.7127 8.10698C19.7093 8.10588 19.7057 8.10547 19.7021 8.10577C19.6985 8.10607 19.6951 8.10708 19.6919 8.10874C19.6887 8.1104 19.6859 8.11268 19.6837 8.11543L19.303 8.57045C19.2949 8.57997 19.29 8.59177 19.289 8.60415C19.2881 8.61654 19.291 8.62888 19.2976 8.63941C19.3506 8.7252 19.5059 8.84629 19.5896 8.88158C20.1059 9.09733 20.5827 9.05172 21.0202 8.74475C21.3265 8.53009 21.4829 8.22963 21.4894 7.84339C21.4966 7.4519 21.2619 7.14674 20.8868 7.06258C20.7009 7.02095 20.5069 6.97805 20.3049 6.93389C20.1037 6.88991 19.9861 6.68466 20.1605 6.53914C20.4006 6.33932 20.7271 6.37841 20.977 6.5576C20.9824 6.56146 20.9891 6.56305 20.9957 6.56204C21.0022 6.56102 21.0081 6.55747 21.012 6.55217L21.3844 6.03416C21.3887 6.02824 21.3917 6.02154 21.3932 6.01445C21.3948 6.00736 21.3949 6.00004 21.3936 5.9929C21.3923 5.98576 21.3895 5.97896 21.3855 5.9729C21.3815 5.96683 21.3763 5.96163 21.3702 5.9576C21.0261 5.7252 20.6711 5.64882 20.3055 5.72846C19.6711 5.86692 19.2713 6.30728 19.3227 6.97516C19.3676 7.55235 19.8269 7.65497 20.2989 7.73099C20.4701 7.75814 20.7222 7.80701 20.6948 8.00737C20.6669 8.21425 20.4673 8.30656 20.2628 8.31796C20.074 8.32846 19.8937 8.25986 19.7219 8.11217ZM18.2602 6.13027C18.255 6.54113 18.2569 7.09099 18.2656 7.77986C18.2705 8.19796 18.2591 8.6052 17.8281 8.71543C17.3994 8.82457 17.3441 8.51669 17.3447 8.16049C17.3458 7.68592 17.3396 7.08031 17.3261 6.34366C17.326 6.33649 17.3243 6.32944 17.3211 6.32297C17.318 6.31651 17.3134 6.31079 17.3078 6.30621C17.3022 6.30162 17.2957 6.29828 17.2886 6.2964C17.2816 6.29453 17.2742 6.29416 17.267 6.29534L16.5889 6.41316C16.5817 6.41435 16.5752 6.41802 16.5706 6.42351C16.566 6.42901 16.5635 6.43594 16.5637 6.44303C16.575 6.93353 16.5787 7.61316 16.5747 8.48194C16.5709 9.25841 17.1861 9.60592 17.8998 9.4452C18.346 9.34475 18.7578 9.0309 18.9284 8.59597C19.0072 8.39506 19.0466 8.21715 19.0466 8.06221C19.0477 7.0852 19.0478 6.40484 19.0471 6.02113C19.0471 6.01209 19.0451 6.00317 19.0412 5.99498C19.0373 5.9868 19.0317 5.97955 19.0247 5.97376C19.0178 5.96796 19.0096 5.96376 19.0008 5.96143C18.992 5.95911 18.9828 5.95873 18.9738 5.96031L18.3066 6.07543C18.2937 6.0777 18.282 6.08443 18.2735 6.09444C18.265 6.10445 18.2603 6.11712 18.2602 6.13027ZM14.9477 8.97606C15.0861 8.94674 15.2737 8.93208 15.3918 8.8995C16.0377 8.72031 16.4084 8.1719 16.3619 7.51054C16.3209 6.91923 15.9228 6.59235 15.3103 6.65425C15.0394 6.6814 14.6714 6.7462 14.2062 6.84864C14.1956 6.85098 14.1862 6.85677 14.1794 6.86506C14.1727 6.87335 14.169 6.88365 14.169 6.89425V9.95018C14.169 9.95983 14.1711 9.96937 14.1753 9.97812C14.1794 9.98687 14.1854 9.99462 14.1928 10.0008C14.2003 10.007 14.209 10.0115 14.2184 10.0141C14.2278 10.0166 14.2376 10.017 14.2472 10.0153L14.8602 9.90945C14.8751 9.9069 14.8885 9.89918 14.8982 9.88766C14.9079 9.87613 14.9133 9.86155 14.9133 9.84647V9.01841C14.9133 9.00851 14.9167 8.99892 14.923 8.99121C14.9293 8.98351 14.938 8.97816 14.9477 8.97606ZM13.0337 8.67199V10.1685C13.0337 10.173 13.0347 10.1776 13.0367 10.1817C13.0386 10.1859 13.0415 10.1896 13.045 10.1925C13.0486 10.1955 13.0527 10.1976 13.0572 10.1988C13.0616 10.2 13.0663 10.2002 13.0709 10.1994L13.761 10.08C13.776 10.0774 13.7896 10.0697 13.7994 10.0582C13.8092 10.0466 13.8146 10.032 13.8146 10.017V6.92249C13.8146 6.91947 13.8139 6.9165 13.8126 6.91378C13.8113 6.91106 13.8094 6.90865 13.807 6.90674C13.8047 6.90482 13.8019 6.90344 13.799 6.90269C13.7961 6.90194 13.793 6.90184 13.79 6.9024L13.1392 7.01534C13.1291 7.01702 13.1196 7.02086 13.1113 7.02659C13.1029 7.03232 13.096 7.03979 13.0911 7.04846L12.2648 8.46891C12.262 8.47364 12.258 8.47762 12.2533 8.4805C12.2486 8.48337 12.2433 8.48504 12.2378 8.48537C12.2323 8.48569 12.2269 8.48465 12.2219 8.48235C12.217 8.48005 12.2127 8.47655 12.2095 8.47217L11.4133 7.39597C11.4021 7.38095 11.387 7.3693 11.3695 7.3623C11.352 7.3553 11.3329 7.35324 11.3143 7.35633L10.8013 7.44538C10.7893 7.44755 10.7785 7.4538 10.7707 7.46303C10.7629 7.47226 10.7586 7.48389 10.7587 7.49588V10.6007C10.7587 10.6053 10.7597 10.6098 10.7617 10.614C10.7636 10.6181 10.7665 10.6218 10.77 10.6247C10.7736 10.6277 10.7777 10.6298 10.7822 10.631C10.7866 10.6322 10.7913 10.6324 10.7959 10.6316L11.4488 10.5187C11.4685 10.5151 11.4863 10.5049 11.4991 10.4898C11.5119 10.4747 11.5188 10.4557 11.5188 10.4362V8.89787C11.5189 8.89386 11.5202 8.88996 11.5226 8.88672C11.525 8.88347 11.5283 8.88103 11.5321 8.87972C11.5359 8.87842 11.5401 8.87831 11.544 8.87942C11.5478 8.88053 11.5513 8.8828 11.5538 8.88592C11.816 9.22837 12.0165 9.48321 12.1554 9.65045C12.1959 9.69896 12.2391 9.7433 12.285 9.78348C12.2884 9.78645 12.2924 9.78861 12.2968 9.78982C12.3012 9.79103 12.3058 9.79126 12.3103 9.79048C12.3148 9.7897 12.319 9.78794 12.3228 9.78532C12.3266 9.7827 12.3297 9.77929 12.332 9.77534L12.9817 8.65841C12.9848 8.6532 12.9895 8.64912 12.9951 8.64682C13.0008 8.64451 13.007 8.64409 13.0129 8.64563C13.0188 8.64717 13.024 8.65058 13.0277 8.65534C13.0315 8.6601 13.0336 8.66594 13.0337 8.67199ZM7.5857 11.1415L8.32835 11.0128C8.33726 11.0113 8.3456 11.0075 8.35245 11.0016C8.35929 10.9958 8.36439 10.9882 8.36718 10.9797L8.51484 10.5181C8.51801 10.5083 8.52386 10.4995 8.53177 10.4927C8.53968 10.4859 8.54933 10.4814 8.55968 10.4796L9.69117 10.2836C9.69902 10.2822 9.70713 10.2836 9.71412 10.2876C9.7211 10.2915 9.72652 10.2978 9.72945 10.3053L9.89734 10.7424C9.90187 10.7542 9.91035 10.7641 9.92133 10.7703C9.93231 10.7765 9.9451 10.7788 9.9575 10.7766L10.6739 10.6523C10.6778 10.6516 10.6815 10.6501 10.6847 10.6478C10.6879 10.6455 10.6906 10.6425 10.6925 10.6391C10.6944 10.6356 10.6954 10.6318 10.6956 10.6279C10.6958 10.624 10.6951 10.62 10.6936 10.6164L9.4396 7.70493C9.43399 7.69196 9.42457 7.68098 9.41257 7.67343C9.40056 7.66587 9.38654 7.66209 9.37234 7.66258C9.19697 7.66873 9.00848 7.70384 8.80687 7.76792C8.78521 7.77463 8.76639 7.78817 8.75328 7.80647C8.72447 7.84592 8.68747 7.92792 8.64226 8.05244C8.50481 8.43072 8.21734 9.24194 7.77984 10.4861C7.7071 10.6924 7.58953 10.8961 7.55289 11.1095C7.5521 11.1138 7.55241 11.1183 7.55378 11.1225C7.55515 11.1268 7.55755 11.1306 7.56076 11.1338C7.56398 11.1369 7.56792 11.1392 7.57226 11.1406C7.5766 11.1419 7.58121 11.1422 7.5857 11.1415ZM7.13617 9.11832L7.6114 8.64647C7.61805 8.63993 7.62192 8.6311 7.62223 8.62181C7.62253 8.61252 7.61925 8.60347 7.61304 8.59651C7.32648 8.27253 6.96281 8.12267 6.52203 8.14692C5.61257 8.19633 4.97929 8.99995 4.92625 9.85244C4.83109 11.3788 6.46953 11.9364 7.45445 10.8635C7.47414 10.8421 7.51023 10.7885 7.56273 10.7028C7.56431 10.7002 7.56495 10.6971 7.56456 10.6941C7.56416 10.691 7.56275 10.6882 7.56054 10.6859L7.11648 10.245C7.11082 10.2394 7.10406 10.2351 7.09661 10.2322C7.08915 10.2294 7.08117 10.2281 7.07316 10.2284C7.06515 10.2288 7.05729 10.2308 7.05006 10.2343C7.04284 10.2378 7.03641 10.2427 7.03117 10.2488C6.87075 10.4352 6.70195 10.552 6.52476 10.599C6.06429 10.7212 5.72796 10.4568 5.69789 9.99199C5.66453 9.46746 5.93031 9.0119 6.46624 8.91688C6.7364 8.86909 6.92398 8.95163 7.12085 9.11887C7.12291 9.12072 7.12563 9.1217 7.12847 9.1216C7.13131 9.1215 7.13407 9.12033 7.13617 9.11832ZM17.8948 11.1176C17.9298 11.1621 17.973 11.201 18.0244 11.2343C18.1079 11.289 18.1887 11.3288 18.2667 11.3538C18.2836 11.3591 18.3017 11.3601 18.3192 11.3565L19.6596 11.0638C19.672 11.0646 19.6786 11.0713 19.6793 11.0839C19.6793 11.0875 19.6783 11.0911 19.6766 11.0943L17.9003 14.1165C17.8714 14.1658 17.857 14.2223 17.8587 14.2794L17.8844 15.1829C17.957 15.2752 18.0476 15.3388 18.1562 15.3735C18.1735 15.3789 18.1915 15.3798 18.2087 15.3762C19.1691 15.1815 20.2056 14.9811 21.3183 14.7752C21.5173 14.7382 21.6415 14.7105 21.6486 14.4738C21.6566 14.2229 21.6573 13.9603 21.6508 13.6859C21.6501 13.6654 21.6432 13.6453 21.6311 13.6284C21.5815 13.5581 21.5048 13.4892 21.4009 13.4215L19.6831 13.7142C20.3117 12.6155 20.9369 11.5361 21.5589 10.4758C21.6759 10.276 21.6459 9.96755 21.6398 9.68683C21.6395 9.67386 21.6364 9.6611 21.6306 9.64939C21.6249 9.63768 21.6166 9.62731 21.6065 9.61896L21.3412 9.40013L17.9298 10.0533C17.9141 10.0564 17.8999 10.0649 17.8898 10.0773C17.8797 10.0897 17.8743 10.1053 17.8746 10.1212L17.8948 11.1176ZM13.8775 11.7952C13.957 11.8676 14.0357 11.9292 14.1137 11.9799C14.2231 12.0505 14.3117 12.0472 14.4287 12.019C14.8761 11.9125 15.2392 11.8539 15.6428 11.7605L15.6527 11.7762C15.6544 11.779 15.6556 11.7822 15.6561 11.7854C15.6566 11.7887 15.6564 11.792 15.6556 11.7952C15.6548 11.7984 15.6534 11.8014 15.6513 11.804C15.6493 11.8066 15.6468 11.8088 15.6439 11.8104C15.6319 11.817 15.6222 11.8262 15.6149 11.8381C15.2146 12.4959 14.8314 13.1612 14.4654 13.8342L13.8135 14.9152C13.8048 14.9293 13.7978 14.9444 13.7927 14.9603C13.7698 15.0342 13.7588 15.0961 13.7599 15.146C13.7654 15.3603 13.7698 15.5737 13.773 15.7862C13.7734 15.8209 13.7847 15.8644 13.8069 15.9165C13.8912 16.0146 13.9856 16.0762 14.0902 16.1011C14.0938 16.1018 14.0977 16.1018 14.1017 16.1011C15.1747 15.8964 16.2728 15.7075 17.3611 15.4734C17.623 15.4164 17.5864 15.2883 17.5891 15.0385C17.5913 14.8441 17.5908 14.6327 17.5875 14.4043C17.5875 14.3837 17.5797 14.3637 17.5656 14.3484C17.5193 14.2966 17.4533 14.2472 17.3677 14.2001C17.3243 14.1509 17.2408 14.1366 17.1172 14.1572C16.6388 14.2365 16.1592 14.3333 15.6784 14.4477C16.3207 13.3495 16.942 12.2533 17.5421 11.1594C17.5797 11.0906 17.5992 11.0088 17.6006 10.914C17.6035 10.742 17.6043 10.5627 17.6028 10.3759C17.6026 10.3544 17.5968 10.3332 17.586 10.3146C17.5752 10.296 17.5597 10.2804 17.541 10.2695L17.4021 10.1891C17.2878 10.1201 17.0198 10.1717 16.8727 10.2016C15.8949 10.401 14.9191 10.5844 13.9453 10.7516C13.8585 10.7665 13.8181 10.8168 13.8239 10.9026C13.8337 11.041 13.8261 11.2447 13.8337 11.5656C13.8363 11.6687 13.8509 11.7453 13.8775 11.7952ZM11.9038 13.1104L11.9098 14.2126C11.8989 14.5976 11.9131 14.9011 11.5626 15.1433C11.3475 15.2921 11.1099 15.3344 10.85 15.2704C10.768 15.1393 10.7273 14.9994 10.728 14.8506C10.735 13.5554 10.7383 12.5554 10.7379 11.8506C10.7379 11.7648 10.735 11.6787 10.7291 11.5922C10.7277 11.5735 10.72 11.5557 10.7073 11.5417C10.6336 11.4591 10.537 11.4009 10.4174 11.3668L9.33187 11.5482C9.31996 11.5501 9.30912 11.5562 9.30131 11.5652C9.29349 11.5743 9.28921 11.5857 9.28921 11.5976L9.28703 14.1768C9.27208 14.5934 9.27226 14.8901 9.28757 15.0667C9.33078 15.5657 9.45874 15.9762 9.88312 16.2678C10.3753 16.7142 10.8752 16.7087 11.5057 16.5768C12.5874 16.3504 13.3022 15.6081 13.3339 14.4895C13.3623 13.4682 13.347 12.3866 13.3394 11.1198C13.3392 11.0939 13.3324 11.0685 13.3197 11.046C13.307 11.0234 13.2887 11.0046 13.2666 10.9911L13.0747 10.8733C12.7269 10.8943 12.3559 10.9478 11.9618 11.034C11.9465 11.0374 11.9329 11.0458 11.923 11.0578C11.9132 11.0699 11.9078 11.0848 11.9077 11.1002L11.9038 13.1104ZM5.12531 13.9183L5.12257 15.2106C5.1182 15.8785 5.1213 16.5504 5.13187 17.2262C5.13296 17.2924 5.14026 17.3406 5.15374 17.3706C5.23104 17.5017 5.3313 17.5706 5.45453 17.5775C5.47749 17.579 5.60291 17.5569 5.83078 17.5113C6.27156 17.4229 6.66513 17.3444 7.01148 17.2756C7.26377 17.2257 7.46393 17.1773 7.61195 17.1306C8.25763 16.9276 8.67526 16.5073 8.86484 15.8698C9.06554 15.1976 8.82492 14.514 8.15281 14.2354C8.1025 14.2018 8.09265 14.1831 8.12328 14.1795C8.61109 13.8378 8.79757 13.3779 8.68273 12.7998C8.61346 12.4515 8.40182 12.2047 8.04781 12.0591C7.71093 11.9085 7.37625 11.8637 7.04375 11.9245C6.43854 12.0349 5.81856 12.1513 5.18382 12.2736C5.16999 12.2763 5.15751 12.2836 5.14853 12.2943C5.13955 12.305 5.13463 12.3184 5.1346 12.3323L5.12531 13.9183Z" fill="#1A3158"/>
<path d="M19.7219 8.1122C19.8936 8.25989 20.0739 8.32849 20.2628 8.31799C20.4673 8.30659 20.6669 8.21428 20.6948 8.0074C20.7222 7.80704 20.47 7.75817 20.2989 7.73102C19.8269 7.655 19.3675 7.55238 19.3227 6.97518C19.2713 6.30731 19.6711 5.86695 20.3054 5.72849C20.6711 5.64885 21.026 5.72523 21.3702 5.95763C21.3763 5.96166 21.3815 5.96686 21.3855 5.97292C21.3895 5.97899 21.3923 5.98579 21.3936 5.99292C21.3949 6.00006 21.3948 6.00739 21.3932 6.01448C21.3916 6.02157 21.3886 6.02827 21.3844 6.03419L21.012 6.5522C21.0081 6.5575 21.0022 6.56105 20.9956 6.56207C20.9891 6.56308 20.9824 6.56149 20.977 6.55763C20.7271 6.37844 20.4006 6.33935 20.1605 6.53916C19.9861 6.68468 20.1036 6.88993 20.3049 6.93392C20.5069 6.97808 20.7008 7.02097 20.8868 7.0626C21.2619 7.14677 21.4965 7.45192 21.4894 7.84342C21.4829 8.22966 21.3264 8.53011 21.0202 8.74478C20.5827 9.05174 20.1058 9.09735 19.5896 8.88161C19.5059 8.84631 19.3506 8.72523 19.2975 8.63944C19.291 8.6289 19.288 8.61656 19.289 8.60418C19.29 8.59179 19.2949 8.58 19.303 8.57048L19.6836 8.11545C19.6859 8.1127 19.6887 8.11043 19.6919 8.10877C19.695 8.10711 19.6985 8.1061 19.7021 8.1058C19.7057 8.10549 19.7092 8.1059 19.7127 8.107C19.7161 8.1081 19.7192 8.10987 19.7219 8.1122Z" fill="#FDFCFC"/>
<path d="M22.4569 5.82522C22.4569 5.82226 22.4579 5.81938 22.4597 5.817C22.4615 5.81462 22.464 5.81285 22.4668 5.81195C22.4696 5.81105 22.4727 5.81106 22.4755 5.81198C22.4784 5.8129 22.4809 5.81468 22.4826 5.81707C22.744 6.17979 22.9852 6.58775 23.2061 7.04097C23.5838 7.81418 23.8742 8.61436 24.0773 9.44151C24.0802 9.45353 24.0788 9.46621 24.0732 9.47733C24.0676 9.48845 24.0582 9.4973 24.0467 9.50232C23.5428 9.72241 23.0171 9.84223 22.4695 9.86178C22.4679 9.86185 22.4662 9.8616 22.4647 9.86103C22.4632 9.86047 22.4618 9.8596 22.4606 9.85848C22.4594 9.85736 22.4585 9.85602 22.4579 9.85454C22.4572 9.85305 22.4569 9.85145 22.4569 9.84983V5.82522Z" fill="#FBCDDE"/>
<path d="M18.3066 6.07542L18.9738 5.96031C18.9828 5.95873 18.992 5.95911 19.0008 5.96143C19.0096 5.96375 19.0177 5.96796 19.0247 5.97376C19.0317 5.97955 19.0373 5.9868 19.0412 5.99498C19.0451 6.00316 19.0471 6.01209 19.0471 6.02113C19.0478 6.40484 19.0476 7.0852 19.0465 8.06221C19.0465 8.21714 19.0072 8.39506 18.9284 8.59597C18.7578 9.0309 18.346 9.34474 17.8997 9.4452C17.1861 9.60592 16.5708 9.25841 16.5747 8.48194C16.5787 7.61316 16.575 6.93352 16.5637 6.44303C16.5635 6.43594 16.566 6.429 16.5706 6.42351C16.5752 6.41802 16.5817 6.41434 16.5889 6.41316L17.267 6.29533C17.2742 6.29416 17.2816 6.29452 17.2886 6.2964C17.2957 6.29828 17.3022 6.30162 17.3078 6.30621C17.3134 6.31079 17.318 6.31651 17.3211 6.32297C17.3243 6.32943 17.326 6.33649 17.3261 6.34366C17.3396 7.08031 17.3458 7.68592 17.3447 8.16049C17.3441 8.51669 17.3994 8.82456 17.8281 8.71542C18.259 8.6052 18.2705 8.19796 18.2656 7.77986C18.2569 7.09099 18.255 6.54113 18.2601 6.13027C18.2603 6.11712 18.265 6.10445 18.2735 6.09444C18.282 6.08442 18.2937 6.0777 18.3066 6.07542Z" fill="#FDFCFC"/>
<path d="M2.61846 6.44639C2.50033 6.41562 2.39333 6.40784 2.29744 6.42304C1.63572 6.52838 1.00025 6.72657 0.353848 6.84929C0.345518 6.85092 0.338019 6.85534 0.332633 6.86177C0.327246 6.86821 0.324307 6.87627 0.324317 6.88458V10.5248C0.324332 10.5335 0.32743 10.542 0.333067 10.5487L0.343457 10.5617L0.317754 18.7776C0.317752 18.7816 0.318638 18.7855 0.320348 18.789C0.322058 18.7926 0.324549 18.7958 0.32764 18.7983C0.330731 18.8008 0.334343 18.8025 0.338215 18.8035C0.342086 18.8044 0.346119 18.8045 0.35002 18.8037L3.50658 18.1135C3.52992 18.2558 3.46502 18.3454 3.3119 18.3823C1.29684 18.8634 0.221687 19.1204 0.0864261 19.1534C0.0799004 19.1549 0.0731021 19.155 0.0665449 19.1536C0.0599878 19.1521 0.0538433 19.1492 0.0485757 19.1451C0.0433081 19.141 0.0390552 19.1357 0.0361384 19.1297C0.0332215 19.1237 0.0317171 19.1171 0.0317386 19.1105V6.69073C0.0317015 6.68047 0.0348127 6.67042 0.040666 6.66189C0.0465194 6.65337 0.0548431 6.64677 0.0645511 6.64295C0.146582 6.61073 0.191973 6.59354 0.200723 6.59137C1.30176 6.34739 2.07377 6.17381 2.51674 6.07064C2.59476 6.05254 2.66859 6.04223 2.73822 6.03969C2.74237 6.03953 2.74649 6.04038 2.75022 6.04217C2.75395 6.04396 2.75718 6.04665 2.75961 6.04998C2.76205 6.05331 2.76362 6.05719 2.76418 6.06127C2.76474 6.06535 2.76428 6.0695 2.76283 6.07336L2.61846 6.44639Z" fill="#FDFCFC"/>
<path d="M3.14345 6.32422L3.34196 6.48929C3.35536 6.5005 3.36429 6.5163 3.36712 6.53381C3.38134 6.62865 3.36493 6.73019 3.3179 6.83843C3.21655 7.0701 3.12376 7.27101 3.03954 7.44114C2.8979 7.72892 2.83501 7.9825 2.72454 8.31046C2.60423 8.66721 2.54407 9.09671 2.47298 9.42467C2.41446 9.69291 2.40024 9.85037 2.36634 10.1012C2.35285 10.204 2.34392 10.2945 2.33954 10.3727C2.32058 10.7105 2.2936 11.0339 2.2586 11.343C2.25627 11.3646 2.24688 11.3849 2.23187 11.4007C2.21686 11.4164 2.19705 11.4269 2.17548 11.4305L1.99118 11.4625C1.98093 11.4643 1.97042 11.4639 1.96034 11.4613C1.95026 11.4588 1.94083 11.4542 1.93267 11.4478C1.92451 11.4414 1.91781 11.4333 1.913 11.4242C1.90819 11.415 1.90539 11.4049 1.90478 11.3946C1.89931 11.3096 1.88491 11.2408 1.86157 11.1883C1.8798 10.4053 1.95181 9.74847 2.07759 9.21779C2.27118 8.39969 2.5211 7.63408 2.82735 6.92096C2.90027 6.75046 3.00563 6.55155 3.14345 6.32422Z" fill="#F26298"/>
<path d="M2.61848 6.4463C2.60426 6.51001 2.58184 6.56485 2.55122 6.61082L0.621841 7.07182C0.616519 7.07305 0.611778 7.07609 0.608399 7.08043C0.60502 7.08477 0.603203 7.09016 0.603247 7.09571L0.611997 10.5133C0.580643 10.5031 0.53507 10.5229 0.475278 10.5724C0.438091 10.6036 0.394159 10.6 0.343481 10.5616L0.333091 10.5486C0.327454 10.5419 0.324356 10.5334 0.324341 10.5247V6.88449C0.324331 6.87618 0.32727 6.86812 0.332657 6.86168C0.338043 6.85524 0.345542 6.85083 0.353872 6.84919C1.00028 6.72648 1.63575 6.52829 2.29747 6.42295C2.39335 6.40774 2.50036 6.41553 2.61848 6.4463Z" fill="#F26298"/>
<path d="M2.55112 6.61084L2.44612 6.87039C2.44309 6.87761 2.4384 6.88403 2.43241 6.88912C2.42643 6.89422 2.41932 6.89784 2.41167 6.89971L0.849244 7.26622C0.835095 7.26943 0.822462 7.27735 0.81342 7.2887C0.804377 7.30005 0.799461 7.31414 0.799478 7.32867L0.808775 17.7681C0.779973 17.8934 0.773958 18.0195 0.790728 18.1466C0.791212 18.1504 0.792517 18.154 0.794554 18.1573C0.796592 18.1606 0.799314 18.1633 0.802533 18.1654C0.805753 18.1676 0.809395 18.169 0.813209 18.1695C0.817024 18.1701 0.820921 18.1699 0.824635 18.1688L1.11667 18.0874L2.51721 17.7698L3.21393 17.647L3.28721 17.8273L0.635963 18.4436C0.632682 18.4443 0.629278 18.4443 0.626001 18.4436C0.622724 18.4428 0.61966 18.4413 0.617034 18.4393C0.614408 18.4372 0.612289 18.4345 0.610832 18.4315C0.609375 18.4285 0.608619 18.4252 0.608619 18.4219C0.62065 17.7269 0.607525 17.0769 0.631041 16.4655C0.686275 15.019 0.641431 13.4715 0.63815 11.9658C0.637056 11.4825 0.628306 10.9984 0.6119 10.5133L0.60315 7.09573C0.603106 7.09018 0.604923 7.08479 0.608302 7.08045C0.611681 7.07611 0.616422 7.07307 0.621744 7.07184L2.55112 6.61084Z" fill="#FDFCFC"/>
<path d="M14.9132 9.01847V9.84652C14.9132 9.8616 14.9079 9.87619 14.8982 9.88771C14.8885 9.89923 14.875 9.90695 14.8602 9.90951L14.2471 10.0154C14.2376 10.0171 14.2277 10.0166 14.2183 10.0141C14.209 10.0116 14.2002 10.0071 14.1928 10.0009C14.1853 9.99467 14.1793 9.98692 14.1752 9.97818C14.1711 9.96943 14.169 9.95989 14.1689 9.95023V6.89431C14.169 6.8837 14.1726 6.87341 14.1794 6.86512C14.1862 6.85683 14.1956 6.85104 14.2061 6.8487C14.6713 6.74625 15.0394 6.68146 15.3103 6.65431C15.9228 6.59241 16.3209 6.91928 16.3619 7.5106C16.4084 8.17195 16.0376 8.72037 15.3918 8.89955C15.2736 8.93213 15.0861 8.94679 14.9477 8.97612C14.938 8.97822 14.9292 8.98357 14.923 8.99127C14.9167 8.99897 14.9133 9.00857 14.9132 9.01847ZM14.9471 8.31476C15.0164 8.31403 15.116 8.2963 15.2457 8.26155C15.5553 8.17847 15.6893 7.90589 15.6034 7.60019C15.517 7.29557 15.1686 7.38299 14.9466 7.42372C14.9383 7.42536 14.9307 7.42983 14.9254 7.43637C14.92 7.44291 14.917 7.45111 14.9171 7.45956V8.28489C14.9171 8.29282 14.9202 8.30041 14.9259 8.30601C14.9315 8.31161 14.9392 8.31476 14.9471 8.31476Z" fill="#FDFCFC"/>
<path d="M13.0337 8.67205C13.0336 8.666 13.0315 8.66015 13.0277 8.65539C13.024 8.65063 13.0188 8.64723 13.0129 8.64569C13.007 8.64415 13.0008 8.64457 12.9951 8.64687C12.9895 8.64918 12.9848 8.65326 12.9817 8.65847L12.332 9.77539C12.3297 9.77935 12.3266 9.78276 12.3228 9.78538C12.319 9.788 12.3148 9.78976 12.3103 9.79054C12.3058 9.79131 12.3012 9.79109 12.2968 9.78988C12.2924 9.78867 12.2884 9.78651 12.285 9.78354C12.2391 9.74336 12.1959 9.69901 12.1554 9.65051C12.0165 9.48327 11.816 9.22843 11.5538 8.88598C11.5513 8.88286 11.5478 8.88059 11.544 8.87948C11.5401 8.87837 11.5359 8.87847 11.5321 8.87978C11.5283 8.88108 11.525 8.88353 11.5226 8.88677C11.5202 8.89002 11.5189 8.89391 11.5188 8.89793V10.4362C11.5188 10.4558 11.5119 10.4748 11.4991 10.4899C11.4863 10.505 11.4685 10.5152 11.4488 10.5187L10.7959 10.6317C10.7913 10.6325 10.7866 10.6323 10.7822 10.6311C10.7777 10.6299 10.7736 10.6277 10.77 10.6248C10.7665 10.6218 10.7636 10.6182 10.7617 10.614C10.7597 10.6099 10.7587 10.6053 10.7587 10.6007V7.49594C10.7586 7.48395 10.7629 7.47232 10.7707 7.46309C10.7785 7.45385 10.7893 7.44761 10.8013 7.44544L11.3143 7.35639C11.3329 7.35329 11.352 7.35536 11.3695 7.36236C11.387 7.36935 11.4021 7.38101 11.4133 7.39603L12.2095 8.47223C12.2127 8.4766 12.217 8.4801 12.2219 8.48241C12.2269 8.48471 12.2323 8.48575 12.2378 8.48542C12.2433 8.4851 12.2486 8.48343 12.2533 8.48055C12.258 8.47768 12.262 8.4737 12.2648 8.46897L13.0911 7.04852C13.096 7.03985 13.1029 7.03238 13.1113 7.02665C13.1196 7.02092 13.1291 7.01707 13.1392 7.01539L13.79 6.90245C13.793 6.9019 13.7961 6.902 13.799 6.90275C13.8019 6.9035 13.8047 6.90488 13.807 6.9068C13.8094 6.90871 13.8113 6.91111 13.8126 6.91383C13.8139 6.91655 13.8146 6.91953 13.8146 6.92254V10.017C13.8146 10.0321 13.8092 10.0467 13.7994 10.0582C13.7896 10.0697 13.776 10.0775 13.761 10.08L13.0709 10.1995C13.0663 10.2003 13.0616 10.2001 13.0572 10.1989C13.0527 10.1977 13.0486 10.1955 13.045 10.1926C13.0415 10.1896 13.0386 10.186 13.0367 10.1818C13.0347 10.1776 13.0337 10.1731 13.0337 10.1685V8.67205Z" fill="#FDFCFC"/>
<path d="M14.9171 8.28486V7.45952C14.9171 7.45107 14.92 7.44287 14.9254 7.43633C14.9308 7.42979 14.9383 7.42532 14.9466 7.42368C15.1687 7.38296 15.517 7.29554 15.6034 7.60015C15.6893 7.90585 15.5553 8.17843 15.2458 8.26151C15.116 8.29626 15.0165 8.314 14.9472 8.31472C14.9392 8.31472 14.9316 8.31158 14.9259 8.30597C14.9203 8.30037 14.9171 8.29278 14.9171 8.28486Z" fill="#1A3158"/>
<path d="M7.58572 11.1416C7.58124 11.1423 7.57663 11.142 7.57229 11.1406C7.56795 11.1393 7.56401 11.137 7.56079 11.1338C7.55757 11.1307 7.55518 11.1268 7.55381 11.1226C7.55244 11.1184 7.55213 11.1139 7.55291 11.1095C7.58955 10.8961 7.70713 10.6925 7.77986 10.4862C8.21736 9.24201 8.50484 8.43079 8.64229 8.0525C8.68749 7.92798 8.7245 7.84599 8.7533 7.80653C8.76641 7.78823 8.78524 7.77469 8.8069 7.76798C9.00851 7.70391 9.197 7.66879 9.37236 7.66264C9.38657 7.66215 9.40059 7.66593 9.41259 7.67349C9.4246 7.68105 9.43402 7.69203 9.43963 7.70499L10.6936 10.6165C10.6952 10.6201 10.6959 10.624 10.6957 10.6279C10.6955 10.6319 10.6944 10.6357 10.6925 10.6391C10.6906 10.6426 10.6879 10.6455 10.6847 10.6478C10.6815 10.6501 10.6778 10.6517 10.6739 10.6523L9.95752 10.7767C9.94512 10.7788 9.93233 10.7766 9.92135 10.7704C9.91038 10.7641 9.90189 10.7543 9.89736 10.7425L9.72947 10.3054C9.72654 10.2979 9.72112 10.2916 9.71414 10.2876C9.70716 10.2837 9.69905 10.2823 9.69119 10.2836L8.55971 10.4797C8.54936 10.4814 8.5397 10.486 8.53179 10.4928C8.52389 10.4996 8.51803 10.5084 8.51486 10.5182L8.36721 10.9797C8.36442 10.9883 8.35932 10.9959 8.35247 11.0017C8.34562 11.0076 8.33729 11.0114 8.32838 11.0129L7.58572 11.1416ZM9.13557 8.87621C9.13354 8.87101 9.12995 8.86655 9.12528 8.86345C9.12062 8.86034 9.1151 8.85874 9.10948 8.85886C9.10386 8.85898 9.09842 8.86081 9.09389 8.86411C9.08936 8.86741 9.08596 8.87202 9.08416 8.8773L8.81127 9.72762C8.80978 9.73207 8.80948 9.73683 8.8104 9.74144C8.81132 9.74604 8.81342 9.75033 8.81651 9.75388C8.81959 9.75744 8.82355 9.76014 8.828 9.76172C8.83245 9.7633 8.83724 9.76371 8.8419 9.76291L9.40354 9.66572C9.4075 9.66502 9.41125 9.66346 9.41454 9.66116C9.41783 9.65885 9.42056 9.65585 9.42254 9.65238C9.42453 9.6489 9.42572 9.64504 9.42602 9.64105C9.42633 9.63707 9.42575 9.63307 9.42432 9.62934L9.13557 8.87621Z" fill="#FDFCFC"/>
<path d="M27.1638 8.05629L26.9177 8.14154C26.8999 8.14804 26.8831 8.15642 26.8674 8.16652C26.7216 8.26317 26.6062 8.38371 26.5213 8.52815C26.211 8.93973 25.9722 9.35729 25.8049 9.78082C25.5238 10.4929 25.3045 11.2208 25.147 11.9647C25.1462 11.9684 25.1461 11.9722 25.1468 11.9759C25.1475 11.9796 25.149 11.9831 25.151 11.9862C25.1531 11.9894 25.1558 11.992 25.159 11.9941C25.1621 11.9962 25.1657 11.9977 25.1694 11.9984L25.6944 12.0967C25.5883 12.1828 25.5166 12.2529 25.4795 12.3068C25.3591 12.4816 25.3005 12.6871 25.3034 12.9231C25.3059 13.1381 25.388 13.3287 25.5495 13.4948L24.9359 13.427C24.929 13.4262 24.9221 13.4282 24.9166 13.4324C24.9112 13.4367 24.9077 13.4429 24.9069 13.4498L24.8648 13.7756C24.8196 14.1433 24.795 14.5967 24.7909 15.1357C24.7869 15.648 24.8334 16.1126 24.9304 16.5296C24.957 16.6436 25.0157 16.8065 25.1065 17.0183C25.1725 17.1718 25.3059 17.2643 25.5068 17.2957C25.3482 17.3501 25.2024 17.32 25.0753 17.2067C24.9362 17.082 24.8219 16.8589 24.7379 16.5481C24.6138 16.0886 24.5603 15.4507 24.5831 14.7008C24.6036 14.0322 24.684 13.2953 24.8177 12.5517C24.9101 12.0385 25.0263 11.5308 25.1617 11.0492C25.3798 10.2737 25.6412 9.58835 25.9191 9.06353C26.0484 8.81932 26.1796 8.61304 26.3096 8.44941C26.4306 8.29725 26.5499 8.18265 26.6651 8.10788C26.8466 7.9897 27.0155 7.97222 27.1638 8.05629Z" fill="#1A3158"/>
<path d="M27.3132 13.7066L26.4524 13.724C26.6048 13.1336 26.7404 12.4994 26.8593 11.8213C27.0004 11.0181 27.0538 10.2224 27.0195 9.43437C27.0075 9.15854 26.9763 8.93971 26.926 8.7779C26.883 8.63999 26.7973 8.59365 26.669 8.6389C26.6055 8.62587 26.5563 8.58894 26.5213 8.52813C26.6062 8.3837 26.7216 8.26315 26.8675 8.1665C26.8831 8.1564 26.9 8.14802 26.9178 8.14152L27.1639 8.05627C27.2551 8.10748 27.3377 8.19673 27.41 8.32234C27.509 8.49326 27.5882 8.7298 27.6451 9.02388C27.7145 9.38244 27.7496 9.82075 27.7485 10.3167C27.7464 11.3401 27.5907 12.5522 27.3132 13.7066Z" fill="#F26298"/>
<path d="M7.12082 9.11889C6.92394 8.95165 6.73637 8.86912 6.46621 8.9169C5.93027 9.01192 5.66449 9.46749 5.69785 9.99201C5.72793 10.4568 6.06426 10.7212 6.52472 10.5991C6.70191 10.552 6.87072 10.4353 7.03113 10.2488C7.03637 10.2428 7.0428 10.2378 7.05003 10.2343C7.05726 10.2308 7.06512 10.2288 7.07313 10.2285C7.08114 10.2281 7.08912 10.2294 7.09657 10.2322C7.10402 10.2351 7.11079 10.2395 7.11644 10.245L7.56051 10.6859C7.56271 10.6882 7.56412 10.6911 7.56452 10.6941C7.56492 10.6972 7.56427 10.7002 7.56269 10.7028C7.51019 10.7886 7.4741 10.8421 7.45441 10.8635C6.46949 11.9364 4.83105 11.3788 4.92621 9.85246C4.97926 8.99997 5.61254 8.19635 6.52199 8.14694C6.96277 8.12269 7.32644 8.27255 7.61301 8.59654C7.61921 8.6035 7.6225 8.61255 7.62219 8.62184C7.62189 8.63113 7.61801 8.63995 7.61137 8.64649L7.13613 9.11835C7.13403 9.12035 7.13128 9.12152 7.12844 9.12162C7.12559 9.12172 7.12287 9.12075 7.12082 9.11889Z" fill="#FDFCFC"/>
<path d="M26.5212 8.5282C26.5562 8.58901 26.6054 8.62594 26.6689 8.63897C26.7655 9.27281 26.7887 9.91806 26.7383 10.5747C26.6607 11.5955 26.4972 12.5762 26.2177 13.5334L25.7605 13.7686C25.7518 13.7732 25.7442 13.7793 25.7381 13.7865C25.6896 13.8408 25.6324 13.8636 25.5664 13.8549C25.3411 13.8252 25.1072 13.7988 24.8647 13.7756L24.9069 13.4498C24.9077 13.443 24.9112 13.4368 24.9166 13.4325C24.922 13.4282 24.929 13.4263 24.9358 13.427L25.5494 13.4949C25.8962 13.4174 26.0781 13.1789 26.0952 12.7792C26.0961 12.7587 26.0902 12.7384 26.0782 12.7215C26.0662 12.7046 26.0489 12.6921 26.029 12.6858L25.9415 12.6582C25.9284 12.6539 25.9175 12.6447 25.9112 12.6326C25.9048 12.6205 25.9035 12.6065 25.9076 12.5935L25.9875 12.3454C25.9905 12.3359 25.9914 12.3258 25.9901 12.316C25.9888 12.3061 25.9853 12.2967 25.9798 12.2884C25.912 12.1816 25.8169 12.1177 25.6944 12.0967L25.1694 11.9984C25.1656 11.9977 25.1621 11.9963 25.159 11.9942C25.1558 11.9921 25.1531 11.9894 25.151 11.9863C25.1489 11.9831 25.1475 11.9796 25.1468 11.9759C25.1461 11.9722 25.1461 11.9684 25.1469 11.9648C25.3044 11.2209 25.5237 10.4929 25.8048 9.78087C25.9722 9.35734 26.211 8.93978 26.5212 8.5282Z" fill="#FDFCFC"/>
<path d="M26.4523 13.724C26.2055 14.692 25.8786 15.5738 25.4717 16.3695C25.4127 16.4849 25.3039 16.606 25.1453 16.7327C25.1413 16.7358 25.1368 16.7381 25.1319 16.7395C25.1271 16.7409 25.122 16.7413 25.1171 16.7408C25.1121 16.7402 25.1073 16.7387 25.1029 16.7363C25.0985 16.7339 25.0947 16.7306 25.0917 16.7267C25.0282 16.6469 25.0348 16.5888 25.1053 16.49C25.3979 16.0811 25.568 15.6896 25.7665 15.119C25.9847 14.4896 26.1242 14.1025 26.2177 13.5334C26.4971 12.5762 26.6607 11.5955 26.7383 10.5747C26.7886 9.91805 26.7655 9.27281 26.6689 8.63896C26.7972 8.59371 26.8829 8.64005 26.9259 8.77796C26.9762 8.93977 27.0074 9.1586 27.0194 9.43443C27.0537 10.2225 27.0003 11.0181 26.8592 11.8214C26.7403 12.4994 26.6047 13.1336 26.4523 13.724Z" fill="#1A3158"/>
<path d="M9.1355 8.87625L9.42425 9.62937C9.42568 9.6331 9.42626 9.6371 9.42596 9.64109C9.42565 9.64507 9.42446 9.64894 9.42248 9.65241C9.42049 9.65589 9.41776 9.65888 9.41447 9.66119C9.41119 9.6635 9.40743 9.66505 9.40347 9.66575L8.84183 9.76295C8.83717 9.76375 8.83239 9.76334 8.82794 9.76175C8.82349 9.76017 8.81953 9.75747 8.81644 9.75391C8.81336 9.75036 8.81125 9.74607 8.81034 9.74147C8.80942 9.73687 8.80972 9.7321 8.8112 9.72765L9.08409 8.87733C9.0859 8.87205 9.08929 8.86744 9.09382 8.86414C9.09835 8.86085 9.1038 8.85901 9.10941 8.85889C9.11503 8.85877 9.12055 8.86038 9.12522 8.86348C9.12988 8.86659 9.13348 8.87104 9.1355 8.87625Z" fill="#1A3158"/>
<path d="M24.4403 13.7071C24.4597 13.6185 24.4179 13.5591 24.3151 13.529C23.6107 13.3238 22.9031 13.1414 22.1921 12.9817L22.1954 10.1186C22.7915 10.1262 23.3739 10.0304 23.9427 9.83131C24.4896 9.64018 24.961 9.44199 25.399 9.17158C25.5204 9.09665 25.6292 9.03222 25.7255 8.97828C25.7279 8.97713 25.7306 8.97678 25.7333 8.97726C25.7359 8.97775 25.7383 8.97906 25.7401 8.981C25.7419 8.98294 25.7431 8.9854 25.7434 8.98804C25.7437 8.99067 25.7432 8.99334 25.7419 8.99565C25.5221 9.34208 25.3536 9.72 25.2284 10.1191C24.9929 10.8706 24.7978 11.6221 24.6432 12.3736C24.5525 12.8156 24.4848 13.2601 24.4403 13.7071Z" fill="#F26298"/>
<path d="M21.3413 9.40015C21.4073 9.66187 21.4279 9.92341 21.4031 10.1848C21.3966 10.2509 21.3753 10.3149 21.3407 10.3721L20.8256 11.2262C20.4346 11.3598 20.0988 11.1849 19.7521 11.0226L19.8729 10.838C19.8758 10.8335 19.8773 10.8282 19.8774 10.8229C19.8774 10.8176 19.8759 10.8123 19.8732 10.8078C19.8704 10.8032 19.8664 10.7995 19.8616 10.7971C19.8568 10.7947 19.8515 10.7936 19.8461 10.794C19.6711 10.8114 19.4965 10.8394 19.3222 10.8782C19.1932 10.9071 18.8882 10.9667 18.4073 11.0568C18.349 11.0677 18.272 11.0881 18.1765 11.1182C18.1488 11.1268 18.0549 11.1267 17.8949 11.1176L17.8746 10.1212C17.8743 10.1053 17.8797 10.0897 17.8898 10.0773C17.8999 10.0649 17.9141 10.0564 17.9299 10.0534L21.3413 9.40015Z" fill="#F26298"/>
<path d="M19.6831 13.7142L19.4069 13.7772C19.4037 13.778 19.4003 13.7778 19.3972 13.7768C19.394 13.7757 19.3912 13.7738 19.389 13.7712C19.3869 13.7686 19.3855 13.7655 19.385 13.7621C19.3845 13.7588 19.3849 13.7553 19.3862 13.7522C19.4266 13.6537 19.4693 13.5645 19.5141 13.4845C19.9389 12.7247 20.376 11.9719 20.8255 11.2262L21.3407 10.3721C21.3753 10.3149 21.3966 10.2509 21.403 10.1848C21.4278 9.92341 21.4072 9.66187 21.3412 9.40015L21.6065 9.61897C21.6166 9.62732 21.6249 9.6377 21.6306 9.64941C21.6364 9.66111 21.6395 9.67388 21.6398 9.68684C21.6459 9.96757 21.6759 10.276 21.5589 10.4758C20.9369 11.5361 20.3117 12.6155 19.6831 13.7142Z" fill="#FDFCFC"/>
<path d="M4.4024 10.0132L4.40458 11.1703C3.89162 11.2677 3.37537 11.3397 2.85583 11.3864L2.93404 10.1967L4.4024 10.0132Z" fill="#FBCDDE"/>
<path d="M17.4021 10.1892C17.3828 10.183 17.373 10.1895 17.3726 10.2087C17.3606 10.6442 17.3507 10.9037 17.3431 10.9873C17.3412 11.0057 17.3368 11.0238 17.3299 11.0411C17.2238 11.3088 17.0477 11.5347 16.9056 11.7959C16.6802 12.2085 16.4526 12.6178 16.2225 13.0235C16.1518 13.1484 16.0809 13.2588 16.0098 13.3548C15.662 13.4963 15.2624 13.633 14.811 13.7647C14.6703 13.806 14.5551 13.8292 14.4654 13.8342C14.8314 13.1613 15.2146 12.4959 15.6149 11.8382C15.6222 11.8263 15.6319 11.817 15.6439 11.8105C15.6468 11.8089 15.6493 11.8067 15.6514 11.8041C15.6534 11.8015 15.6548 11.7985 15.6556 11.7953C15.6565 11.7921 15.6566 11.7887 15.6561 11.7855C15.6556 11.7822 15.6544 11.7791 15.6527 11.7763L15.6428 11.7606L15.7932 11.5206C15.7952 11.5174 15.7961 11.5137 15.796 11.5099C15.7959 11.5062 15.7947 11.5025 15.7926 11.4995C15.7904 11.4964 15.7875 11.4939 15.784 11.4925C15.7805 11.491 15.7767 11.4906 15.773 11.4912C15.299 11.5767 14.8231 11.661 14.3451 11.7443C14.1635 11.7758 14.0077 11.7928 13.8775 11.7953C13.8509 11.7454 13.8363 11.6688 13.8338 11.5656C13.8261 11.2447 13.8338 11.0411 13.8239 10.9026C13.8181 10.8168 13.8586 10.7665 13.9453 10.7517C14.9191 10.5845 15.8949 10.4011 16.8727 10.2016C17.0199 10.1718 17.2878 10.1202 17.4021 10.1892Z" fill="#F26298"/>
<path d="M17.4021 10.1891L17.5411 10.2695C17.5597 10.2804 17.5752 10.296 17.586 10.3146C17.5969 10.3333 17.6027 10.3544 17.6029 10.3759C17.6043 10.5627 17.6036 10.7421 17.6007 10.914C17.5992 11.0089 17.5797 11.0907 17.5421 11.1594C16.942 12.2534 16.3208 13.3495 15.6784 14.4478C15.5967 14.4843 15.5143 14.5006 15.4312 14.4966C15.4267 14.4964 15.4223 14.4951 15.4184 14.4928C15.4146 14.4904 15.4114 14.4871 15.4092 14.4832C15.4069 14.4793 15.4057 14.4749 15.4056 14.4704C15.4056 14.4659 15.4067 14.4615 15.4088 14.4575L16.0098 13.3547C16.0809 13.2588 16.1518 13.1484 16.2225 13.0235C16.4526 12.6177 16.6803 12.2085 16.9056 11.7958C17.0478 11.5347 17.2239 11.3088 17.33 11.0411C17.3369 11.0238 17.3413 11.0057 17.3431 10.9873C17.3507 10.9037 17.3606 10.6442 17.3726 10.2087C17.373 10.1895 17.3828 10.183 17.4021 10.1891Z" fill="#FDFCFC"/>
<path d="M0.611968 10.5133C0.628374 10.9984 0.637124 11.4826 0.638218 11.9658C0.641499 13.4715 0.686343 15.019 0.631108 16.4655C0.607593 17.0769 0.620718 17.7269 0.608686 18.4219C0.608686 18.4253 0.609443 18.4286 0.610899 18.4316C0.612356 18.4346 0.614476 18.4372 0.617102 18.4393C0.619727 18.4414 0.622792 18.4429 0.626068 18.4436C0.629345 18.4444 0.63275 18.4444 0.63603 18.4436L3.28728 17.8273C3.35327 17.9095 3.43694 17.9758 3.5383 18.0261C3.53319 18.0663 3.52262 18.0954 3.50658 18.1135L0.350015 18.8036C0.346114 18.8044 0.342081 18.8044 0.33821 18.8034C0.334338 18.8025 0.330726 18.8007 0.327635 18.7982C0.324544 18.7957 0.322053 18.7926 0.320343 18.789C0.318633 18.7854 0.317746 18.7815 0.317749 18.7776L0.343452 10.5616C0.394129 10.6 0.438061 10.6036 0.475249 10.5725C0.535041 10.5229 0.580614 10.5032 0.611968 10.5133Z" fill="#DC1B63"/>
<path d="M19.7521 11.0226L19.6597 11.0639L18.3193 11.3566C18.3017 11.3601 18.2836 11.3592 18.2668 11.3539C18.1888 11.3289 18.108 11.2891 18.0245 11.2344C17.9731 11.2011 17.9299 11.1622 17.8949 11.1177C18.0549 11.1267 18.1488 11.1269 18.1765 11.1182C18.2721 11.0881 18.349 11.0677 18.4073 11.0568C18.8882 10.9667 19.1932 10.9072 19.3222 10.8782C19.4965 10.8395 19.6711 10.8114 19.8461 10.794C19.8515 10.7936 19.8569 10.7947 19.8616 10.7971C19.8664 10.7996 19.8704 10.8033 19.8732 10.8078C19.876 10.8124 19.8774 10.8176 19.8774 10.823C19.8773 10.8283 19.8758 10.8335 19.8729 10.838L19.7521 11.0226Z" fill="#FDFCFC"/>
<path d="M13.0747 10.8733L13.0867 12.5859L13.0911 13.0246C13.0912 13.0357 13.0891 13.0467 13.085 13.0569C13.0808 13.0672 13.0746 13.0766 13.0668 13.0844C13.059 13.0923 13.0496 13.0986 13.0393 13.1028C13.029 13.1071 13.018 13.1093 13.0069 13.1093L11.9038 13.1104L11.9076 11.1003C11.9078 11.0848 11.9132 11.0699 11.923 11.0579C11.9328 11.0458 11.9465 11.0374 11.9618 11.034C12.3559 10.9479 12.7269 10.8943 13.0747 10.8733Z" fill="#F26298"/>
<path d="M9.88318 16.2679C10.0574 16.354 10.2175 16.4034 10.3633 16.4161C10.7804 16.4519 11.2112 16.3982 11.6556 16.2548C12.4491 15.9991 13.0315 15.4219 13.0638 14.5792C13.0682 14.4655 13.0733 14.3517 13.0791 14.2376L13.0868 12.5859L13.0747 10.8733L13.2667 10.9911C13.2888 11.0046 13.307 11.0235 13.3198 11.046C13.3325 11.0685 13.3393 11.0939 13.3394 11.1198C13.3471 12.3866 13.3624 13.4682 13.334 14.4896C13.3022 15.6081 12.5875 16.3504 11.5058 16.5768C10.8752 16.7088 10.3754 16.7142 9.88318 16.2679Z" fill="#FDFCFC"/>
<path d="M19.7521 11.0226C20.0988 11.1849 20.4346 11.3598 20.8256 11.2262C20.3761 11.9719 19.9389 12.7247 19.5142 13.4845C19.4693 13.5645 19.4267 13.6537 19.3862 13.7522C19.3849 13.7553 19.3845 13.7588 19.385 13.7621C19.3855 13.7655 19.3869 13.7686 19.3891 13.7712C19.3912 13.7738 19.394 13.7757 19.3972 13.7768C19.4004 13.7778 19.4038 13.7779 19.407 13.7772L19.6832 13.7142L21.4009 13.4215L21.3982 14.4309C21.3981 14.4435 21.3937 14.4557 21.3856 14.4654C21.3775 14.4751 21.3663 14.4817 21.3539 14.4841L17.8845 15.1829L17.8588 14.2794C17.857 14.2223 17.8714 14.1659 17.9004 14.1165L19.6766 11.0943C19.6784 11.0911 19.6793 11.0875 19.6793 11.0839C19.6786 11.0713 19.672 11.0646 19.6596 11.0638L19.7521 11.0226Z" fill="#DC1B63"/>
<path d="M4.40455 11.1703L4.40127 17.5716C4.01955 16.9276 3.72369 16.3102 3.51369 15.7194C3.02333 14.3406 2.80403 12.8963 2.8558 11.3864C3.37534 11.3397 3.89159 11.2677 4.40455 11.1703Z" fill="#FBCDDE"/>
<path d="M2.56754 11.2648C2.54894 11.882 2.55168 12.3625 2.57574 12.7064C2.65485 13.8246 2.87616 14.88 3.23965 15.8726C3.46824 16.4963 3.761 17.137 4.11793 17.7947C4.26522 18.0662 4.46191 18.3739 4.70801 18.7178C4.91983 19.0146 5.1353 19.3113 5.35441 19.6078L5.07058 19.4823C5.04349 19.4701 5.019 19.453 4.9984 19.4318C4.93241 19.3641 4.82084 19.2291 4.66371 19.0268C4.32282 18.5873 4.03626 18.1659 3.80402 17.7627C3.78433 17.7287 3.76118 17.6972 3.73457 17.6682C3.74259 17.6411 3.7384 17.6221 3.72199 17.6112C3.70011 17.5967 3.68152 17.5992 3.66621 17.6188C3.65199 17.6373 3.65217 17.6655 3.66676 17.7035C3.66238 17.7042 3.65709 17.7077 3.6509 17.7138C3.65235 17.6635 3.64834 17.6309 3.63886 17.6161C3.30691 17.0921 3.11058 16.541 2.89183 15.9703C2.76824 15.6483 2.68621 15.2383 2.58777 14.8642C2.49097 14.4945 2.45105 14.1524 2.39418 13.844C2.36027 13.659 2.33274 13.4675 2.3116 13.2695C2.24634 12.6613 2.22501 12.068 2.24761 11.4896C2.24794 11.4812 2.2503 11.4731 2.2545 11.4659C2.25869 11.4587 2.26459 11.4527 2.27168 11.4483L2.56754 11.2648Z" fill="#DC1B63"/>
<path d="M10.4174 11.3668C10.428 11.4168 10.4376 11.464 10.4464 11.5085C10.4555 11.5545 10.4602 11.6021 10.4606 11.6513C10.4671 12.5458 10.4715 13.4313 10.4737 14.3076C10.2936 14.2942 10.116 14.2758 9.94105 14.2523C9.7573 14.2273 9.50464 14.2495 9.28699 14.1768L9.28917 11.5976C9.28917 11.5857 9.29345 11.5742 9.30127 11.5652C9.30908 11.5561 9.31992 11.5501 9.33183 11.5482L10.4174 11.3668Z" fill="#F26298"/>
<path d="M10.4175 11.3668C10.5371 11.4008 10.6337 11.4591 10.7073 11.5417C10.7201 11.5557 10.7278 11.5735 10.7292 11.5922C10.735 11.6787 10.7379 11.7648 10.7379 11.8506C10.7383 12.5554 10.735 13.5554 10.7281 14.8506C10.7274 14.9994 10.768 15.1393 10.8501 15.2704C10.635 15.2168 10.5197 15.0682 10.5044 14.8246C10.4946 14.6613 10.4844 14.489 10.4738 14.3076C10.4716 13.4313 10.4672 12.5458 10.4607 11.6513C10.4603 11.6021 10.4556 11.5545 10.4465 11.5085C10.4377 11.464 10.4281 11.4168 10.4175 11.3668Z" fill="#FDFCFC"/>
<path d="M15.6428 11.7606C15.2392 11.854 14.876 11.9126 14.4287 12.019C14.3117 12.0473 14.2231 12.0505 14.1137 11.9799C14.0357 11.9293 13.9569 11.8677 13.8774 11.7953C14.0076 11.7928 14.1635 11.7758 14.345 11.7443C14.823 11.661 15.299 11.5767 15.7729 11.4913C15.7766 11.4906 15.7804 11.491 15.7839 11.4925C15.7874 11.494 15.7904 11.4964 15.7925 11.4995C15.7946 11.5026 15.7958 11.5062 15.7959 11.5099C15.7961 11.5137 15.7951 11.5174 15.7931 11.5206L15.6428 11.7606Z" fill="#FDFCFC"/>
<path d="M8.04787 12.0592L8.28849 12.366C8.28922 12.3671 8.28995 12.3684 8.29068 12.3698C8.3512 12.4755 8.3924 12.6145 8.41427 12.7868C8.45292 13.0909 8.40589 13.3752 8.27318 13.6399C8.22396 13.5211 8.17292 13.4639 8.12005 13.4683C7.7963 13.4938 7.50755 13.5307 7.24888 13.3559L7.21443 13.2076C7.24323 13.162 7.23156 13.1061 7.17943 13.0399C7.16688 13.0238 7.15033 13.0111 7.1313 13.0029C6.91474 12.9112 6.5199 13.0339 6.26669 13.1072C6.25074 13.112 6.2367 13.1216 6.22659 13.1348C6.21648 13.1479 6.2108 13.1639 6.21037 13.1805L6.20162 13.5226L6.18849 13.7626C6.18801 13.7708 6.18512 13.7788 6.18018 13.7855C6.17524 13.7923 6.16845 13.7975 6.1606 13.8006C6.08185 13.8317 6.00146 13.852 5.91943 13.8614C5.65802 13.89 5.39333 13.909 5.12537 13.9184L5.13466 12.3323C5.13469 12.3185 5.13961 12.305 5.14859 12.2943C5.15757 12.2836 5.17005 12.2763 5.18388 12.2737C5.81862 12.1513 6.4386 12.035 7.0438 11.9246C7.3763 11.8637 7.71099 11.9086 8.04787 12.0592Z" fill="#F26298"/>
<path d="M8.04784 12.0592C8.40186 12.2047 8.6135 12.4516 8.68277 12.7998C8.79761 13.3779 8.61113 13.8378 8.12331 14.1796C8.02342 14.1922 7.93574 14.1718 7.86027 14.1182C7.85655 14.1156 7.85353 14.1121 7.85143 14.108C7.84932 14.104 7.8482 14.0995 7.84815 14.0949C7.84809 14.0904 7.84911 14.0858 7.85112 14.0817C7.85313 14.0775 7.85607 14.0738 7.85972 14.071C8.03946 13.9323 8.17727 13.7886 8.27316 13.6398C8.40587 13.3752 8.4529 13.0909 8.41425 12.7868C8.39238 12.6145 8.35118 12.4755 8.29066 12.3698C8.28993 12.3684 8.2892 12.3671 8.28847 12.366L8.04784 12.0592Z" fill="#FDFCFC"/>
<path d="M25.5494 13.4949C25.3879 13.3287 25.3059 13.1381 25.3033 12.9231C25.3004 12.6871 25.3591 12.4817 25.4794 12.3068C25.5166 12.2529 25.5882 12.1828 25.6943 12.0967C25.8168 12.1177 25.912 12.1816 25.9798 12.2884C25.9853 12.2967 25.9888 12.3061 25.9901 12.316C25.9914 12.3258 25.9905 12.3359 25.9875 12.3454L25.9076 12.5935C25.9035 12.6065 25.9048 12.6205 25.9111 12.6326C25.9175 12.6447 25.9284 12.6539 25.9415 12.6581L26.029 12.6858C26.0489 12.692 26.0662 12.7045 26.0782 12.7214C26.0901 12.7383 26.0961 12.7586 26.0952 12.7792C26.0781 13.1789 25.8961 13.4174 25.5494 13.4949Z" fill="#FBCDDE"/>
<path d="M13.079 14.2377L13.0725 14.0699C13.0724 14.0665 13.0715 14.0631 13.07 14.0599C13.0684 14.0568 13.0662 14.0541 13.0634 14.0519C13.0607 14.0497 13.0575 14.048 13.0541 14.0471C13.0506 14.0462 13.047 14.046 13.0435 14.0466L11.9098 14.2127L11.9038 13.1105L13.0069 13.1094C13.018 13.1094 13.029 13.1072 13.0393 13.1029C13.0496 13.0986 13.059 13.0924 13.0668 13.0845C13.0746 13.0766 13.0808 13.0673 13.085 13.057C13.0891 13.0467 13.0912 13.0357 13.0911 13.0247L13.0867 12.5859L13.079 14.2377Z" fill="#FBCDDE"/>
<path d="M24.4403 13.7071C24.37 14.3822 24.347 15.0554 24.3714 15.7265C24.3714 15.729 24.3707 15.7315 24.3692 15.7336C24.3678 15.7357 24.3658 15.7374 24.3635 15.7383C24.3612 15.7393 24.3586 15.7395 24.3562 15.7389C24.3539 15.7383 24.3517 15.737 24.3501 15.7352C23.7624 15.0756 23.0444 14.5938 22.196 14.2897L22.1921 12.9817C22.9031 13.1413 23.6107 13.3238 24.3151 13.529C24.4179 13.5591 24.4597 13.6184 24.4403 13.7071Z" fill="#FBCDDE"/>
<path d="M7.21435 13.2077L6.48427 13.2978C6.47379 13.299 6.46414 13.3041 6.45726 13.312C6.45037 13.32 6.44674 13.3302 6.44708 13.3407L6.46021 13.9999C6.42412 14.0422 6.35339 14.0554 6.24802 14.0395C6.24022 14.0385 6.23302 14.0347 6.22772 14.0288C6.22242 14.023 6.21934 14.0154 6.21904 14.0075L6.20154 13.5226L6.21029 13.1805C6.21072 13.164 6.2164 13.148 6.22651 13.1348C6.23663 13.1217 6.25066 13.112 6.26662 13.1072C6.51982 13.0339 6.91466 12.9112 7.13123 13.003C7.15026 13.0112 7.16681 13.0239 7.17935 13.0399C7.23149 13.1061 7.24315 13.162 7.21435 13.2077Z" fill="#FDFCFC"/>
<path d="M7.21443 13.2076L7.24889 13.3559C7.26237 13.6983 7.09612 13.896 6.75014 13.9488C6.66154 13.9622 6.56493 13.9792 6.46029 13.9999L6.44717 13.3407C6.44682 13.3302 6.45045 13.32 6.45734 13.312C6.46423 13.3041 6.47387 13.299 6.48435 13.2978L7.21443 13.2076Z" fill="#1A3158"/>
<path d="M16.0098 13.3547L15.4088 14.4575C15.4067 14.4615 15.4056 14.4659 15.4056 14.4704C15.4057 14.4749 15.4069 14.4793 15.4092 14.4832C15.4114 14.4871 15.4146 14.4904 15.4184 14.4927C15.4223 14.4951 15.4267 14.4964 15.4312 14.4966C15.5143 14.5006 15.5967 14.4843 15.6784 14.4478C16.1593 14.3334 16.6389 14.2365 17.1172 14.1573C17.2408 14.1366 17.3243 14.1509 17.3677 14.2002L17.3589 15.145C17.359 15.1535 17.3567 15.1619 17.3524 15.1693C17.348 15.1766 17.3418 15.1827 17.3343 15.1868C17.2782 15.2179 17.2096 15.2409 17.1287 15.2557C16.3208 15.4016 15.6058 15.5404 14.9839 15.6722C14.9507 15.6791 14.9299 15.6831 14.9215 15.6841C14.7498 15.708 14.6158 15.7569 14.4364 15.783C14.2264 15.8127 14.0166 15.8572 13.807 15.9165C13.7848 15.8644 13.7735 15.821 13.7731 15.7862C13.7698 15.5737 13.7654 15.3603 13.76 15.146C13.7589 15.0961 13.7698 15.0342 13.7928 14.9603C13.7979 14.9445 13.8048 14.9293 13.8136 14.9153L14.4654 13.8342C14.5551 13.8291 14.6703 13.806 14.8111 13.7647C15.2624 13.6329 15.662 13.4963 16.0098 13.3547Z" fill="#DC1B63"/>
<path d="M8.27311 13.6398C8.17722 13.7886 8.03941 13.9323 7.85967 14.0709C7.85602 14.0738 7.85308 14.0775 7.85107 14.0816C7.84906 14.0858 7.84804 14.0903 7.8481 14.0949C7.84815 14.0995 7.84927 14.104 7.85137 14.108C7.85348 14.1121 7.8565 14.1155 7.86021 14.1182C7.93568 14.1718 8.02337 14.1922 8.12326 14.1795C8.09264 14.1832 8.10248 14.2018 8.15279 14.2355C8.14878 14.2395 8.14477 14.2424 8.14076 14.2442C8.13991 14.2446 8.13916 14.2453 8.13858 14.246C8.13801 14.2468 8.13763 14.2477 8.13747 14.2486C8.1373 14.2495 8.13737 14.2504 8.13766 14.2512C8.13795 14.2521 8.13845 14.2528 8.13912 14.2534L8.16318 14.274L8.13693 14.2664C8.12865 14.2642 8.11996 14.2637 8.11141 14.2649C8.10286 14.2661 8.09461 14.269 8.08717 14.2735L7.11154 14.8604C6.79909 14.884 6.50652 14.9441 6.23381 15.0407L5.12256 15.2107L5.12529 13.9184C5.39326 13.909 5.65795 13.89 5.91936 13.8614C6.00139 13.8519 6.08178 13.8317 6.16053 13.8005C6.16837 13.7975 6.17517 13.7922 6.18011 13.7855C6.18505 13.7788 6.18793 13.7708 6.18842 13.7625L6.20154 13.5225L6.21904 14.0074C6.21935 14.0154 6.22242 14.0229 6.22773 14.0288C6.23303 14.0347 6.24022 14.0384 6.24803 14.0395C6.35339 14.0554 6.42412 14.0422 6.46021 13.9998C6.56485 13.9792 6.66147 13.9622 6.75006 13.9488C7.09605 13.8959 7.2623 13.6983 7.24881 13.3558C7.50748 13.5307 7.79623 13.4938 8.11998 13.4682C8.17285 13.4639 8.22389 13.5211 8.27311 13.6398Z" fill="#FBCDDE"/>
<path d="M17.8844 15.183L21.3538 14.4841C21.3662 14.4817 21.3775 14.4751 21.3855 14.4654C21.3936 14.4557 21.398 14.4435 21.3981 14.4309L21.4008 13.4215C21.5047 13.4892 21.5815 13.5582 21.631 13.6284C21.6432 13.6454 21.65 13.6654 21.6507 13.6859C21.6573 13.9603 21.6566 14.223 21.6485 14.4738C21.6414 14.7106 21.5173 14.7383 21.3182 14.7752C20.2055 14.9811 19.169 15.1815 18.2087 15.3763C18.1915 15.3798 18.1734 15.3789 18.1562 15.3735C18.0476 15.3388 17.957 15.2753 17.8844 15.183Z" fill="#FDFCFC"/>
<path d="M26.2177 13.5334C26.1242 14.1025 25.9847 14.4896 25.7665 15.119C25.568 15.6896 25.3979 16.0811 25.1053 16.49C25.0348 16.5888 25.0282 16.6469 25.0917 16.7267C25.0947 16.7306 25.0986 16.7339 25.1029 16.7363C25.1073 16.7387 25.1121 16.7402 25.1171 16.7408C25.122 16.7413 25.1271 16.7409 25.1319 16.7395C25.1368 16.7381 25.1413 16.7358 25.1453 16.7327C25.3039 16.606 25.4127 16.4849 25.4717 16.3695C25.8786 15.5738 26.2055 14.692 26.4523 13.724L27.3131 13.7067C27.2219 14.0869 27.1189 14.4549 27.0063 14.8019C26.7981 15.4436 26.5625 15.9991 26.3183 16.4243C26.2002 16.63 26.0813 16.8034 25.9639 16.9412C25.8059 17.1266 25.6518 17.2461 25.5067 17.2958C25.3059 17.2643 25.1724 17.1718 25.1064 17.0183C25.0157 16.8066 24.957 16.6437 24.9303 16.5296C24.8334 16.1126 24.7869 15.648 24.7909 15.1358C24.7949 14.5968 24.8195 14.1434 24.8647 13.7756C25.1072 13.7988 25.341 13.8252 25.5664 13.8549C25.6323 13.8636 25.6896 13.8408 25.7381 13.7865C25.7442 13.7793 25.7518 13.7732 25.7605 13.7686L26.2177 13.5334Z" fill="#DC1B63"/>
<path d="M13.0791 14.2377C13.0733 14.3517 13.0682 14.4656 13.0638 14.5792C13.0315 15.422 12.4491 15.9991 11.6556 16.2549C11.2112 16.3982 10.7804 16.452 10.3633 16.4162C10.2175 16.4035 10.0574 16.3541 9.88317 16.2679C9.4588 15.9763 9.33083 15.5658 9.28762 15.0668C9.27231 14.8902 9.27213 14.5935 9.28708 14.1769C9.50473 14.2496 9.75739 14.2274 9.94114 14.2524C10.1161 14.2759 10.2937 14.2944 10.4738 14.3077C10.4844 14.4891 10.4946 14.6614 10.5044 14.8247C10.5197 15.0683 10.6349 15.2169 10.85 15.2705C11.11 15.3345 11.3475 15.2922 11.5626 15.1434C11.9132 14.9012 11.899 14.5977 11.9099 14.2127L13.0436 14.0466C13.0471 14.046 13.0507 14.0462 13.0541 14.0471C13.0576 14.048 13.0608 14.0497 13.0635 14.0519C13.0662 14.0541 13.0685 14.0568 13.07 14.0599C13.0716 14.063 13.0724 14.0665 13.0725 14.0699L13.0791 14.2377Z" fill="#DC1B63"/>
<path d="M8.16315 14.2741C8.41435 14.4138 8.56875 14.6071 8.62635 14.854C8.84839 15.8004 8.39393 16.5622 7.48885 16.8723C7.29453 16.9389 7.11279 16.9881 6.94362 17.0199C6.34935 17.1325 5.75271 17.2494 5.1537 17.3707C5.14021 17.3407 5.13292 17.2925 5.13182 17.2263C5.12125 16.5504 5.11815 15.8786 5.12253 15.2107L6.23378 15.0408L6.23049 16.0621C6.23048 16.0688 6.23304 16.0753 6.23763 16.0802C6.24221 16.085 6.24847 16.0879 6.2551 16.0882C6.35755 16.0932 6.43211 16.0757 6.47878 16.0355C6.94253 15.9698 7.41339 15.928 7.45987 15.4198C7.47409 15.2652 7.42068 15.1394 7.29964 15.0424C7.31458 15.0207 7.30711 14.9915 7.27721 14.955C7.23346 14.9018 7.17823 14.8703 7.11151 14.8605L8.08714 14.2735C8.09458 14.2691 8.10282 14.2661 8.11138 14.2649C8.11993 14.2637 8.12861 14.2642 8.1369 14.2665L8.16315 14.2741Z" fill="#DC1B63"/>
<path d="M17.3677 14.2002C17.4534 14.2473 17.5194 14.2967 17.5657 14.3484C17.5798 14.3638 17.5876 14.3838 17.5876 14.4044C17.5908 14.6328 17.5914 14.8442 17.5892 15.0386C17.5865 15.2883 17.6231 15.4165 17.3611 15.4735C16.2729 15.7075 15.1747 15.8965 14.1018 16.1012C14.0978 16.1019 14.0939 16.1019 14.0903 16.1012C13.9857 16.0762 13.8912 16.0147 13.807 15.9166C14.0166 15.8572 14.2265 15.8127 14.4365 15.783C14.6158 15.7569 14.7498 15.7081 14.9215 15.6842C14.9299 15.6831 14.9507 15.6791 14.9839 15.6722C15.6059 15.5405 16.3208 15.4016 17.1287 15.2558C17.2097 15.2409 17.2782 15.2179 17.3344 15.1868C17.3418 15.1827 17.3481 15.1767 17.3524 15.1693C17.3567 15.162 17.359 15.1536 17.359 15.145L17.3677 14.2002Z" fill="#FDFCFC"/>
<path d="M8.15287 14.2355C8.82498 14.514 9.06561 15.1976 8.8649 15.8699C8.67532 16.5073 8.25769 16.9276 7.61201 17.1307C7.46399 17.1774 7.26384 17.2257 7.01154 17.2757C6.66519 17.3444 6.27162 17.423 5.83084 17.5113C5.60298 17.5569 5.47756 17.579 5.45459 17.5776C5.33136 17.5707 5.2311 17.5017 5.15381 17.3707C5.75282 17.2494 6.34946 17.1325 6.94373 17.0199C7.1129 16.9881 7.29464 16.9388 7.48897 16.8722C8.39404 16.5622 8.8485 15.8004 8.62647 14.8539C8.56886 14.6071 8.41446 14.4138 8.16326 14.274L8.1392 14.2534C8.13853 14.2528 8.13803 14.2521 8.13774 14.2512C8.13745 14.2504 8.13738 14.2495 8.13754 14.2486C8.1377 14.2477 8.13809 14.2468 8.13866 14.246C8.13924 14.2453 8.13998 14.2446 8.14084 14.2442C8.14485 14.2424 8.14886 14.2395 8.15287 14.2355Z" fill="#FDFCFC"/>
<path d="M4.58276 17.9609L5.05909 18.3709C5.09883 18.4118 5.14914 18.442 5.21003 18.4616C5.32706 18.4999 5.44446 18.535 5.56222 18.5669C5.42076 18.5951 5.45248 18.6502 5.65737 18.732C5.72519 18.7591 5.9 18.7665 6.18183 18.7542C6.37907 18.7459 6.73107 18.6963 7.23784 18.6054C8.01331 18.4664 8.66901 18.3698 9.33128 18.2492C9.68894 18.1845 10.036 18.1256 10.3725 18.0728C11.2366 17.9367 11.6885 17.8659 11.7282 17.8605C12.4632 17.7622 13.3415 17.5586 14.1312 17.4397C14.3233 17.4107 14.5266 17.3734 14.741 17.3278C15.0948 17.2529 15.5821 17.1839 16.0075 17.0845C16.7223 16.9173 17.4327 16.7854 18.171 16.6301C18.4608 16.5692 18.8338 16.5133 19.1723 16.4199C19.185 16.4164 19.1962 16.4087 19.2041 16.3982C19.212 16.3877 19.2162 16.3749 19.216 16.3618C19.2157 16.318 19.227 16.2663 19.25 16.2065L22.4853 15.5805C22.4926 15.5791 22.4993 15.5752 22.5041 15.5694C22.5089 15.5637 22.5115 15.5564 22.5115 15.549V14.6943C22.5115 14.6902 22.5124 14.6862 22.5144 14.6826C22.5163 14.6789 22.5191 14.6758 22.5226 14.6735C22.526 14.6712 22.53 14.6698 22.5342 14.6693C22.5384 14.6689 22.5426 14.6695 22.5465 14.671C22.9461 14.8299 23.3063 15.0552 23.6271 15.347C23.6345 15.3538 23.6397 15.3626 23.6422 15.3723C23.6447 15.382 23.6444 15.3922 23.6414 15.4018C23.532 15.7428 23.4091 16.0759 23.2728 16.4009C22.3631 18.5707 20.8847 20.257 18.8376 21.4599C17.477 22.2597 15.9501 22.7316 14.3669 22.8603C12.2746 23.0297 10.3368 22.6395 8.55362 21.6896C7.27758 21.0098 6.17672 20.0963 5.25104 18.9492C5.00021 18.6378 4.77745 18.3084 4.58276 17.9609ZM17.0214 19.7387C17.0216 19.7389 17.0219 19.7391 17.0222 19.7392C17.0225 19.7393 17.0228 19.7394 17.0231 19.7394C17.0234 19.7394 17.0237 19.7393 17.024 19.7392C17.0243 19.7391 17.0245 19.7389 17.0247 19.7387L20.5313 16.2277C20.5338 16.2251 20.5354 16.2219 20.5359 16.2183C20.5364 16.2148 20.5357 16.2112 20.534 16.208C20.5323 16.2049 20.5296 16.2024 20.5264 16.2008C20.5232 16.1993 20.5195 16.1988 20.516 16.1995L19.3998 16.3928C19.3843 16.3955 19.3697 16.4017 19.3571 16.4109C19.3445 16.4202 19.3342 16.4322 19.3271 16.446C19.2746 16.5459 19.1887 16.6829 19.0695 16.857C18.3392 17.9253 17.6522 18.8768 17.0083 19.7115C17.0065 19.7136 17.0056 19.7164 17.0058 19.7192C17.006 19.722 17.0073 19.7247 17.0094 19.7267L17.0214 19.7387ZM15.7286 17.8078C13.6239 18.2339 11.5093 18.6988 9.38487 19.2027C9.38401 19.2029 9.38317 19.2032 9.38243 19.2036C9.38168 19.2041 9.38103 19.2047 9.38052 19.2054C9.38001 19.2061 9.37965 19.2069 9.37946 19.2077C9.37927 19.2086 9.37925 19.2095 9.3794 19.2103L9.38433 19.2397C9.38438 19.24 9.38452 19.2404 9.38474 19.2407C9.38496 19.241 9.38526 19.2413 9.38562 19.2415C9.38598 19.2417 9.38639 19.2418 9.38683 19.2419C9.38726 19.2419 9.38771 19.2419 9.38815 19.2418L14.992 18.2715C14.996 18.2709 15 18.2715 15.0037 18.2732C15.0073 18.275 15.0103 18.2778 15.0123 18.2813C15.0142 18.2848 15.0151 18.2888 15.0147 18.2928C15.0143 18.2967 15.0127 18.3005 15.01 18.3035C14.8179 18.5269 14.601 18.8027 14.3592 19.1311C13.7183 20.0013 13.1124 20.8769 12.5414 21.758C12.5396 21.7606 12.539 21.7638 12.5396 21.7671C12.5402 21.7703 12.542 21.7733 12.5447 21.7754C12.5471 21.7772 12.5501 21.778 12.5531 21.7777C12.5561 21.7774 12.559 21.776 12.5611 21.7738C12.8827 21.41 13.2972 20.9108 13.8047 20.2762C14.8029 19.0284 15.4484 18.2125 15.7412 17.8284C15.7428 17.8264 15.7436 17.8239 15.7438 17.8213C15.7439 17.8187 15.7432 17.8161 15.7419 17.8139C15.7405 17.8117 15.7386 17.8099 15.7362 17.8089C15.7338 17.8078 15.7312 17.8074 15.7286 17.8078ZM11.5275 20.0693C11.5247 20.0712 11.5226 20.074 11.5216 20.0772C11.5206 20.0805 11.5208 20.0839 11.522 20.0871C11.5233 20.0902 11.5257 20.0928 11.5287 20.0944C11.5317 20.096 11.5351 20.0966 11.5385 20.0959C11.8382 20.0511 12.1871 19.9857 12.5852 19.8999C12.7077 19.8733 12.775 19.8315 12.8646 19.8098C12.869 19.8087 12.8735 19.8088 12.8778 19.8099C12.8821 19.811 12.8861 19.8132 12.8893 19.8162C12.8926 19.8192 12.895 19.823 12.8965 19.8272C12.8979 19.8314 12.8982 19.8358 12.8975 19.8402L12.7126 20.8898C12.7116 20.895 12.7124 20.9004 12.715 20.905C12.7176 20.9096 12.7218 20.9132 12.7268 20.915C12.7319 20.9169 12.7374 20.9169 12.7424 20.915C12.7474 20.9132 12.7516 20.9096 12.7542 20.905C13.0544 20.4109 13.3749 19.9493 13.6242 19.4748C13.7796 19.1783 13.9199 18.9267 14.0453 18.72C14.0473 18.7168 14.0484 18.7132 14.0485 18.7094C14.0485 18.7056 14.0475 18.7019 14.0456 18.6987C14.0437 18.6955 14.0409 18.6928 14.0376 18.691C14.0343 18.6892 14.0305 18.6884 14.0267 18.6885C13.9496 18.6918 13.8939 18.732 13.8392 18.7542C13.3328 18.9591 12.8861 19.1712 12.4993 19.3906C12.1329 19.5986 11.8803 19.8027 11.5275 20.0693Z" fill="#DC1B63"/>
<path d="M7.11161 14.8605C7.17832 14.8702 7.23356 14.9017 7.27731 14.955C7.30721 14.9915 7.31468 15.0207 7.29973 15.0424L6.51551 15.2308C6.50647 15.233 6.49839 15.2381 6.49256 15.2453C6.48672 15.2526 6.48345 15.2616 6.48325 15.271L6.47887 16.0355C6.43221 16.0757 6.35765 16.0932 6.2552 16.0882C6.24857 16.0879 6.24231 16.085 6.23772 16.0802C6.23313 16.0753 6.23058 16.0688 6.23059 16.0621L6.23387 15.0407C6.50658 14.9441 6.79916 14.884 7.11161 14.8605Z" fill="#FDFCFC"/>
<path d="M7.29974 15.0424C7.42078 15.1394 7.47419 15.2652 7.45998 15.4197C7.41349 15.928 6.94263 15.9698 6.47888 16.0355L6.48326 15.271C6.48346 15.2616 6.48673 15.2526 6.49257 15.2453C6.4984 15.238 6.50648 15.2329 6.51552 15.2308L7.29974 15.0424Z" fill="#1A3158"/>
<path d="M7.67871 22.0148C7.73996 21.9949 7.80212 21.9618 7.8652 21.9154C7.87619 21.9073 7.88532 21.897 7.89198 21.8851C7.89864 21.8732 7.90268 21.8601 7.90382 21.8466C7.90495 21.833 7.90317 21.8194 7.89859 21.8067C7.894 21.7939 7.88672 21.7823 7.87723 21.7726L7.73941 21.6304C7.9516 21.7404 8.16069 21.8503 8.36668 21.96C9.39335 22.5069 10.4545 22.8756 11.55 23.066C15.3732 23.7306 19.4015 22.333 21.8838 19.3292C22.6199 18.4387 23.2001 17.4782 23.6136 16.4242C23.7816 15.9956 23.8757 15.746 23.8957 15.6754C23.8967 15.6721 23.8985 15.6691 23.901 15.6667C23.9036 15.6643 23.9067 15.6626 23.9102 15.6619C23.9136 15.6611 23.9173 15.6612 23.9207 15.6623C23.9241 15.6633 23.9272 15.6652 23.9296 15.6678C23.9947 15.7379 24.2009 15.9469 24.1588 16.0648C23.597 17.6572 22.7236 19.0557 21.5387 20.2604C19.8921 21.935 17.7472 23.04 15.4318 23.4608C14.0988 23.7029 12.7621 23.6986 11.4215 23.4477C10.0999 23.2001 8.8523 22.7225 7.67871 22.0148Z" fill="#1A3158"/>
<path d="M19.25 16.2065C19.227 16.2663 19.2157 16.318 19.2161 16.3618C19.2162 16.3749 19.212 16.3877 19.2041 16.3982C19.1962 16.4087 19.185 16.4164 19.1723 16.4199C18.8338 16.5133 18.4608 16.5693 18.171 16.6301C17.4327 16.7854 16.7223 16.9173 16.0076 17.0846C15.5821 17.1839 15.0948 17.2529 14.741 17.3278C14.5266 17.3734 14.3234 17.4107 14.1312 17.4397C13.3415 17.5586 12.4633 17.7622 11.7283 17.8605C11.6885 17.8659 11.2366 17.9367 10.3726 18.0728C10.036 18.1256 9.68897 18.1845 9.33131 18.2493C8.66904 18.3698 8.01334 18.4665 7.23787 18.6055C6.7311 18.6963 6.3791 18.7459 6.18186 18.7542C5.90003 18.7665 5.72522 18.7591 5.6574 18.732C5.45251 18.6502 5.42079 18.5951 5.56225 18.5669C5.69751 18.6002 5.80087 18.6138 5.87233 18.6076C6.20209 18.5778 6.65326 18.4665 6.93819 18.4143C9.26678 17.9915 11.2056 17.6422 12.7547 17.3664C13.8806 17.1658 14.9942 16.968 16.0956 16.7729C17.1471 16.5868 18.1985 16.398 19.25 16.2065Z" fill="#FBCDDE"/>
<path d="M17.0215 19.7387L17.0095 19.7267C17.0074 19.7247 17.0061 19.722 17.0059 19.7192C17.0057 19.7164 17.0066 19.7136 17.0084 19.7115C17.6522 18.8768 18.3393 17.9253 19.0695 16.8571C19.1888 16.6829 19.2746 16.5459 19.3271 16.446C19.3343 16.4322 19.3445 16.4202 19.3571 16.411C19.3698 16.4017 19.3844 16.3955 19.3999 16.3928L20.516 16.1995C20.5196 16.1988 20.5232 16.1993 20.5265 16.2009C20.5297 16.2024 20.5324 16.2049 20.5341 16.2081C20.5358 16.2112 20.5364 16.2148 20.5359 16.2183C20.5354 16.2219 20.5338 16.2252 20.5313 16.2277L17.0248 19.7387C17.0246 19.7389 17.0243 19.7391 17.024 19.7392C17.0238 19.7394 17.0234 19.7394 17.0231 19.7394C17.0228 19.7394 17.0225 19.7394 17.0222 19.7392C17.022 19.7391 17.0217 19.7389 17.0215 19.7387Z" fill="#FDFCFC"/>
<path d="M24.4339 16.4373C24.4204 16.4377 24.4058 16.4326 24.3901 16.4221C24.4003 16.4138 24.4093 16.4111 24.4169 16.414C24.4275 16.4179 24.4332 16.4257 24.4339 16.4373Z" fill="#1A3158"/>
<path d="M3.73465 17.6682C3.71095 17.6718 3.68835 17.6836 3.66684 17.7035C3.65225 17.6655 3.65207 17.6372 3.66629 17.6188C3.6816 17.5992 3.7002 17.5967 3.72207 17.6112C3.73848 17.622 3.74267 17.641 3.73465 17.6682Z" fill="#1A3158"/>
<path d="M15.7413 17.8284C15.4485 18.2125 14.803 19.0284 13.8048 20.2762C13.2973 20.9108 12.8828 21.4099 12.5612 21.7737C12.5591 21.776 12.5562 21.7774 12.5532 21.7777C12.5502 21.778 12.5472 21.7772 12.5448 21.7754C12.5421 21.7732 12.5403 21.7703 12.5397 21.767C12.5391 21.7638 12.5397 21.7606 12.5415 21.758C13.1125 20.8769 13.7184 20.0013 14.3593 19.131C14.6011 18.8027 14.818 18.5269 15.0101 18.3035C15.0128 18.3005 15.0144 18.2967 15.0148 18.2927C15.0152 18.2887 15.0143 18.2847 15.0124 18.2812C15.0104 18.2778 15.0074 18.2749 15.0038 18.2732C15.0001 18.2715 14.9961 18.2709 14.9921 18.2715L9.38825 19.2418C9.38781 19.2419 9.38736 19.2419 9.38692 19.2418C9.38649 19.2418 9.38608 19.2416 9.38572 19.2414C9.38536 19.2412 9.38506 19.241 9.38484 19.2407C9.38461 19.2404 9.38447 19.24 9.38442 19.2396L9.3795 19.2103C9.37934 19.2095 9.37936 19.2086 9.37955 19.2077C9.37975 19.2069 9.38011 19.2061 9.38062 19.2054C9.38113 19.2047 9.38177 19.2041 9.38252 19.2036C9.38327 19.2031 9.3841 19.2028 9.38497 19.2027C11.5094 18.6988 13.624 18.2338 15.7287 17.8078C15.7313 17.8074 15.7339 17.8077 15.7363 17.8088C15.7386 17.8099 15.7406 17.8117 15.742 17.8139C15.7433 17.8161 15.744 17.8187 15.7439 17.8213C15.7437 17.8238 15.7428 17.8263 15.7413 17.8284Z" fill="#FDFCFC"/>
<path d="M11.5276 20.0693C11.8803 19.8027 12.133 19.5985 12.4994 19.3906C12.8862 19.1712 13.3328 18.9591 13.8392 18.7542C13.8939 18.7319 13.9497 18.6918 14.0268 18.6885C14.0306 18.6883 14.0343 18.6892 14.0377 18.691C14.041 18.6928 14.0437 18.6954 14.0457 18.6987C14.0476 18.7019 14.0486 18.7056 14.0485 18.7094C14.0485 18.7131 14.0474 18.7168 14.0454 18.72C13.92 18.9267 13.7796 19.1783 13.6243 19.4747C13.3749 19.9493 13.0545 20.4109 12.7542 20.905C12.7516 20.9096 12.7474 20.9131 12.7424 20.915C12.7374 20.9168 12.7319 20.9168 12.7269 20.915C12.7219 20.9132 12.7177 20.9096 12.7151 20.905C12.7125 20.9004 12.7116 20.895 12.7127 20.8898L12.8975 19.8402C12.8983 19.8358 12.8979 19.8313 12.8965 19.8271C12.8951 19.8229 12.8926 19.8192 12.8894 19.8161C12.8861 19.8131 12.8822 19.811 12.8779 19.8098C12.8735 19.8087 12.869 19.8087 12.8647 19.8098C12.775 19.8315 12.7077 19.8733 12.5852 19.8999C12.1871 19.9857 11.8382 20.051 11.5385 20.0959C11.5352 20.0966 11.5317 20.096 11.5287 20.0944C11.5257 20.0928 11.5234 20.0902 11.5221 20.0871C11.5208 20.0839 11.5206 20.0804 11.5216 20.0772C11.5226 20.074 11.5247 20.0712 11.5276 20.0693Z" fill="#F26298"/>
</g>
<defs>
<clipPath id="clip0_126_180">
<rect width="28" height="24" fill="white"/>
</clipPath>
</defs>
</svg>
