<svg version="1.1" xmlns="http://www.w3.org/2000/svg" viewBox="0 0 2048 1753" width="1000" height="856" display="block"><path fill="#ffffff" d="M 196.381 739.174 C 213.713 599.683 275.457 467.129 362.647 357.67 C 493.005 193.382 683.171 87.4664 891.478 63.1295 C 1105.07 37.5647 1319.99 98.7419 1488.1 232.958 C 1520.25 258.74 1550.53 286.768 1578.72 316.83 C 1589.23 328.069 1600.37 339.567 1608.52 352.685 C 1616.48 365.508 1622.8 381.749 1624.46 396.779 C 1628.18 411.326 1627.18 449.542 1627.5 465.914 C 1628.67 533.429 1629.23 600.952 1629.19 668.476 C 1629.31 691.127 1632.28 713.599 1632.19 736.272 C 1630.86 768.335 1631.52 800.62 1631.49 832.719 C 1631.46 872.357 1630.98 912.074 1631.59 951.703 C 1631.47 966.922 1629.69 1039.91 1632.65 1049.49 C 1631.16 1076.39 1634.29 1103.62 1631.94 1130.41 C 1567.2 1144.53 1501.59 1155.63 1436.49 1168.08 C 1247.56 1203.53 1058.44 1237.94 869.129 1271.31 L 542.018 1330.86 L 459.042 1346.12 C 435.369 1350.68 411.123 1355.92 387.186 1358.75 C 377.263 1359.92 365.436 1358.32 355.83 1355.92 C 351.787 1350.98 333.065 1335.68 327.181 1334.6 L 325.26 1336 C 316.722 1325.91 308.24 1304.62 303.659 1292.04 C 286.182 1267.2 272.401 1236.7 260.041 1209.03 C 207.241 1090.83 185.988 961.245 190.029 832.258 C 190.454 818.703 192.03 805.15 192.906 791.615 C 194.043 774.046 194.53 756.724 196.381 739.174 z M 305.426 728.913 C 305.427 684.62 303.715 639.698 305.743 595.497 L 306.008 588.845 C 307.636 586.146 308.356 585.522 311.393 584.611 C 327.23 579.861 344.939 577.696 361.2 574.615 C 400.87 567.096 440.897 560.649 480.355 552.138 C 519.327 543.731 558.095 534.684 597.261 527.16 C 675.089 512.208 753.561 499.802 831.612 485.972 L 1238.25 414.421 L 1461.95 375.683 C 1490.68 370.662 1528.83 359.433 1556.93 359.735 C 1580.21 359.984 1596.26 370.017 1612.31 385.911 C 1615.4 388.976 1619.54 394.377 1623.4 396.286 C 1623.75 396.459 1624.11 396.614 1624.46 396.779 C 1622.8 381.749 1616.48 365.508 1608.52 352.685 C 1600.37 339.567 1589.23 328.069 1578.72 316.83 C 1550.53 286.768 1520.25 258.74 1488.1 232.958 C 1319.99 98.7419 1105.07 37.5647 891.478 63.1295 C 683.171 87.4664 493.005 193.382 362.647 357.67 C 275.457 467.129 213.713 599.683 196.381 739.174 L 196.939 741.168 C 202.553 743.712 291.715 730.703 305.426 728.913 z M 359.082 1118.07 C 359.058 1139.98 356.371 1266.56 361.796 1280.44 C 365.174 1284.63 369.161 1290.19 374.062 1292.52 C 378.78 1294.76 385.338 1294.48 390.464 1294 C 410.132 1292.13 429.785 1286.31 449.158 1282.43 C 482.393 1275.78 517.522 1271.33 549.544 1260.06 C 583.531 1248.09 612.599 1225.26 628.237 1192.34 C 641.603 1164.2 647.595 1129.95 636.821 1099.9 C 627.499 1073.9 610.342 1057.4 585.606 1045.88 L 580.192 1041.71 C 581.081 1041.43 581.79 1041.1 582.562 1040.57 C 603.244 1026.54 620.12 1005.41 624.435 980.317 C 628.471 956.852 625.341 927.575 611.09 907.821 C 604.98 899.351 590.752 885.978 580.321 884.249 C 567.8 873.051 535.008 869.322 518.787 870.21 C 498.948 871.295 478.633 876.211 459.114 879.886 L 360.222 898.787 L 359.712 980.524 C 357.51 1026.1 359.016 1072.43 359.082 1118.07 z M 835.794 722.5 C 835.77 695.426 835.019 668.115 836.236 641.074 C 857.436 662.924 871.651 693.038 895.424 712.359 C 912.531 681.966 929.969 651.76 947.734 621.747 C 950.549 639.672 949.797 657.833 949.754 675.92 L 949.661 742.704 C 968.09 737.884 987.331 736.875 1005.8 732.17 C 1007.41 717.53 1006.98 702.664 1006.98 687.955 L 1006.89 625.584 C 1006.84 605.102 1006.21 584.597 1006.35 564.122 C 1006.51 542.007 1007.49 519.697 1006.36 497.61 L 1005.24 496.326 L 1004.45 496.31 C 988.129 498.863 970.737 501.133 954.791 505.312 L 916.365 571.767 C 908.974 584.6 900.116 604.358 890.031 614.483 C 882.058 611.396 835.971 542.12 824.899 529.711 C 809.908 531.943 795.104 535.233 780.101 537.394 C 779.351 582.25 779.882 627.19 779.869 672.055 C 779.859 706.156 779.014 740.497 780.23 774.568 C 790.643 773.256 827.322 768.615 834.455 763.294 C 838.428 751.55 835.711 734.921 835.794 722.5 z M 504.687 744.845 C 488.701 761.201 472.064 775.233 447.942 775.395 C 435.929 775.475 425.009 771.574 416.453 762.947 C 405.119 751.519 401.409 736.029 401.531 720.343 C 401.696 699.088 408.069 678.365 423.703 663.395 C 436.252 651.38 454.03 644.395 471.431 644.995 C 486.229 645.506 497.458 651.887 508.723 661.009 C 521.692 649.472 533.719 636.331 545.721 623.785 C 526.475 601.973 502.122 590.934 473.204 589.252 C 470.698 589.106 468.207 589.176 465.704 589.354 C 427.024 593.851 399.474 606.341 374.912 637.49 C 352.223 666.265 341.39 705.513 345.81 741.857 C 349.099 768.905 361.83 796.163 383.634 813.158 C 405.596 830.277 433.044 835.804 460.312 832.097 C 487.475 828.404 517.783 812.002 534.307 789.82 C 536.771 786.513 538.988 782.965 541.263 779.527 L 531.684 770.761 C 523.285 762.031 514.516 751.928 504.687 744.845 z M 1529.16 820.525 C 1520.72 836.478 1510.98 851.801 1501.85 867.37 C 1485.02 896.148 1468.35 925.024 1451.84 953.994 C 1441.52 972.322 1430 990.903 1422.51 1010.59 C 1430.04 1008.97 1437.63 1007.49 1445.02 1005.25 C 1452.67 986.913 1468.49 962.841 1478.62 945.03 L 1555.89 810.767 C 1565.67 793.887 1582.04 771.6 1587.49 753.462 C 1592.18 737.842 1590.94 717.126 1588.89 701.018 C 1582.51 694.736 1575.14 689.385 1568.52 683.328 C 1572.98 702.501 1577.56 730.518 1570.68 749.542 C 1567.04 759.583 1560.68 768.962 1555.2 778.101 C 1547.15 791.517 1539.09 804.944 1530.83 818.231 C 1530.32 819.053 1529.79 819.789 1529.16 820.525 z M 1311.1 1116.6 C 1313.59 1119.7 1316.85 1122.65 1320.16 1124.87 C 1323.86 1127.35 1328.57 1129.89 1333.14 1129.78 C 1342.01 1129.57 1351.48 1126.84 1360.2 1125.1 L 1409 1115.33 L 1571.48 1084.14 C 1577.62 1082.89 1583.81 1081.42 1587.31 1075.56 C 1592.9 1066.17 1592.87 1014.57 1589.57 1003.7 C 1586.97 995.127 1580.44 989.297 1572.7 985.207 C 1572.83 998.476 1575.67 1054.38 1571.06 1062.92 C 1558.49 1068.74 1531.54 1071.87 1516.86 1074.87 L 1377.97 1103.12 L 1335.46 1111.75 C 1327.54 1113.3 1318.75 1114.1 1311.1 1116.6 z M 1571.97 426.577 C 1553.84 413.685 1526.37 402.614 1503.69 406.414 C 1478.61 408.745 1453.26 418.892 1436.83 438.601 C 1422.47 455.837 1416.12 477.869 1418.19 500.143 C 1419.55 514.732 1424.61 528.751 1436.18 538.289 C 1444.88 545.459 1455.66 549.312 1466.45 552.086 C 1478.72 555.24 1519.73 557.668 1520.82 574.708 C 1521.22 581.039 1517.08 588.598 1512.81 593.026 C 1506.25 599.811 1493.26 602.267 1484.1 602.109 C 1468.63 601.842 1457.29 595.288 1445.63 585.695 C 1435.91 598.49 1424.15 609.945 1415.2 623.23 C 1427.04 640.151 1442.99 647.392 1463.03 650.989 C 1470.21 652.279 1477.43 652.701 1484.71 653.083 C 1514.15 650.331 1540.93 640.87 1560.54 617.491 C 1573.77 601.717 1580.13 579.267 1578.18 558.849 C 1576.74 543.904 1570.86 530.52 1559.12 520.848 C 1551.03 514.174 1541.37 510.462 1531.35 507.719 C 1517.78 504.006 1475.01 501.156 1472.94 483.16 C 1472.38 478.218 1474.24 472.724 1477.57 469.067 C 1484 461.999 1496.63 457.761 1505.93 457.596 C 1520.02 457.346 1530.81 462.947 1543.07 469.145 C 1551.99 454.926 1564.94 441.704 1571.97 426.577 z M 716.718 785.5 C 736.12 782.476 755.76 779.361 774.974 775.337 C 748.665 720.01 725.909 662.468 701.674 606.176 C 694.94 590.534 688.66 574.476 681.411 559.082 C 680.659 557.485 679.151 553.739 677.463 553.261 C 675.525 552.712 673.554 553.132 671.596 553.388 C 658.011 554.665 644.617 557.5 631.679 561.836 C 621.665 576.813 613.508 606.478 607.288 623.994 L 562.464 751.849 C 555.339 771.991 544.947 792.292 540.563 813.123 C 560.139 809.45 580.682 807.142 599.969 802.431 C 603.302 792.555 607.226 768.194 616.352 763.461 C 618.336 762.432 620.766 762.185 622.942 761.815 C 624.698 761.499 626.457 761.202 628.219 760.924 C 652.48 756.498 677.698 750.427 702.28 748.482 C 707.583 760.61 712.065 773.111 716.718 785.5 z M 1213.13 519.75 C 1213.5 537.777 1213.62 555.808 1213.5 573.838 C 1213.25 604.944 1208.39 644.688 1233.2 668.47 C 1248.28 682.924 1268.76 688.861 1289.3 688.301 C 1317.93 687.522 1347.47 674.815 1367.19 653.973 C 1380.55 639.86 1389.16 622.738 1393.53 603.849 C 1398.99 580.225 1396.45 553.877 1396.54 529.734 C 1396.67 497.335 1397.38 464.753 1396.52 432.372 C 1396.47 430.753 1396.35 429.137 1396.17 427.527 C 1394.12 425.679 1392.84 425.78 1390.05 425.915 C 1389.09 425.962 1388.85 426.03 1388.01 426.189 C 1372.23 430.491 1355.25 431.377 1339.12 434.683 C 1338.85 466.083 1338.81 497.485 1338.99 528.886 C 1339.14 551.069 1341.46 575.96 1337.13 597.767 C 1335.31 606.93 1332.02 615.226 1325.26 621.942 C 1316.73 630.418 1304.1 633.694 1292.28 633.372 C 1286.8 633.222 1282.1 631.489 1278.37 627.375 C 1273.9 622.454 1271.97 615.727 1271 609.291 C 1268.12 590.197 1269.86 569.248 1269.84 549.881 C 1269.74 516.813 1269.25 483.748 1268.36 450.692 C 1249.59 451.839 1231.23 457.249 1212.52 459.319 C 1212.68 479.455 1213.34 499.616 1213.13 519.75 z M 1007.23 1171.65 C 1010.26 1174.79 1013.92 1178.13 1017.59 1180.48 C 1021.05 1182.69 1024.45 1184.12 1028.62 1183.86 C 1037.74 1183.28 1047.37 1180.78 1056.39 1179.15 L 1116.82 1167.63 C 1164.82 1158.25 1212.99 1150.18 1260.76 1139.57 C 1265.84 1138.44 1281.77 1135.71 1284.38 1131.41 C 1290.46 1121.4 1289.64 1066.53 1286.6 1054.47 C 1282.21 1049.99 1277.01 1046.14 1272.08 1042.28 C 1272.05 1053.43 1273.52 1110.4 1270.12 1116.25 C 1255.99 1124.72 1211.46 1130.2 1193.21 1133.7 L 1078.06 1156.9 C 1054.54 1161.58 1030.21 1164.84 1007.23 1171.65 z M 952.8 1030.88 C 952.874 1078.1 950.57 1121.11 915.054 1156.49 C 877.82 1193.59 819.598 1210.19 768.006 1209.85 C 750.127 1209.73 734.616 1207.37 718.246 1199.97 C 718.736 1200.78 718.816 1200.98 719.558 1201.77 C 735.403 1218.65 766.282 1226.21 788.589 1226.13 C 837.803 1225.97 892.693 1207.2 927.595 1172.02 C 946.049 1153.23 959.116 1129.83 965.429 1104.27 C 975.643 1064.03 971.563 1002.11 971.272 959.205 C 971.072 929.666 972.036 900.141 971.89 870.593 C 971.844 861.367 973.092 812.05 969.2 806.24 C 965.315 800.44 957.984 798.687 953.181 793.776 C 953.01 793.6 952.847 793.416 952.68 793.236 C 951.97 834.37 953.816 875.651 953.976 916.81 C 954.026 929.698 955.908 946.058 953.457 958.624 C 953.404 982.679 953.678 1006.85 952.8 1030.88 z M 1088.1 702.75 C 1088 691.276 1085.54 661.299 1089.78 651.958 C 1096.69 646.728 1111.48 647.067 1120.07 645.269 C 1161.24 636.649 1190.01 604.257 1195.8 562.987 C 1198.87 541.114 1195.25 517.028 1181.4 499.213 C 1171.01 485.843 1154.14 479.255 1137.71 477.296 C 1132.41 476.665 1126.78 476.729 1121.49 477.418 C 1108.91 478.557 1040.74 487.776 1034.75 494.067 C 1033.01 507.379 1033.74 521.264 1033.73 534.679 L 1033.71 599.062 C 1033.71 619.565 1031.29 712.919 1035.61 727.15 C 1045.85 729.009 1076.93 722.372 1087.93 719.43 C 1088.04 713.871 1088.1 708.311 1088.1 702.75 z M 1014.26 861.65 C 1014.29 861.92 1014.26 862.202 1014.35 862.458 C 1015.99 867.108 1029.53 875.988 1033.76 879.05 C 1039.46 879.724 1045.46 879.768 1051.16 879.031 C 1061.89 877.641 1072.44 874.04 1083.02 871.765 C 1103.48 867.37 1124.17 863.819 1144.38 858.338 C 1147.34 851.765 1151.81 846.142 1154.94 839.698 C 1142.23 840.932 1129.56 843.808 1117.01 846.131 L 1064.81 855.565 C 1048.27 858.622 1031.15 862.371 1014.26 861.65 z M 1459.05 787.685 C 1439.86 788.272 1421.29 793.012 1402.57 796.912 C 1388.58 799.826 1374.5 802.27 1360.51 805.201 C 1343.92 808.677 1328.93 812.346 1311.83 811.961 C 1316.76 816.244 1322.15 820.428 1327.79 823.715 C 1332.04 826.191 1336.99 828.388 1342 828.261 C 1354.14 827.954 1367.3 823.311 1379.24 820.631 C 1400.57 815.841 1422.02 811.637 1443.22 806.264 L 1448.69 804.233 C 1452.82 798.925 1456.15 793.762 1459.05 787.685 z M 784.859 1122.69 C 782.274 1116.05 778.542 1109.73 777.471 1102.6 C 774.7 1084.16 776.843 1063.58 776.959 1044.89 L 777.077 923.733 C 777.135 901.297 778.357 878.498 777.255 856.106 C 777.068 852.304 776.722 847.706 774.968 844.302 C 771.403 837.382 761.623 833.038 754.532 830.665 C 760.899 863.434 758.132 906.037 758.032 940.212 L 758.339 1050.4 L 758.461 1051.23 C 761.322 1072.07 755.149 1102.48 774.067 1116.87 C 777.194 1119.25 781.258 1121.13 784.859 1122.69 z M 1170.55 980.146 C 1160.63 1000.57 1148.88 1020.43 1138.15 1040.47 C 1134.47 1047.35 1129.31 1054.87 1126.98 1062.29 C 1127.61 1063.59 1127.36 1063.82 1128.86 1064.3 C 1132.82 1065.58 1140.39 1063.36 1143.81 1061.34 C 1144.78 1060.76 1145.69 1060.09 1146.58 1059.41 C 1183.41 992.909 1222.88 927.868 1258.99 860.937 C 1267.13 845.84 1281.92 824.339 1286.73 808.806 C 1290.29 797.34 1290.5 767.76 1288.65 755.622 C 1287.5 748.046 1278.56 744.954 1272.87 740.887 C 1272.52 758.208 1274.13 787.767 1269.86 803.788 C 1264.6 823.547 1249.52 841.887 1239.64 859.579 C 1217.14 899.866 1196.51 941.947 1170.55 980.146 z" data-c-fill="1a3158" fill-opacity="1"/><path fill="rgb(89,36,233)" d="M 196.381 739.174 C 213.713 599.683 275.457 467.129 362.647 357.67 C 493.005 193.382 683.171 87.4664 891.478 63.1295 C 1105.07 37.5647 1319.99 98.7419 1488.1 232.958 C 1520.25 258.74 1550.53 286.768 1578.72 316.83 C 1589.23 328.069 1600.37 339.567 1608.52 352.685 C 1616.48 365.508 1622.8 381.749 1624.46 396.779 C 1624.11 396.614 1623.75 396.459 1623.4 396.286 C 1619.54 394.377 1615.4 388.976 1612.31 385.911 C 1596.26 370.017 1580.21 359.984 1556.93 359.735 C 1528.83 359.433 1490.68 370.662 1461.95 375.683 L 1238.25 414.421 L 831.612 485.972 C 753.561 499.802 675.089 512.208 597.261 527.16 C 558.095 534.684 519.327 543.731 480.355 552.138 C 440.897 560.649 400.87 567.096 361.2 574.615 C 344.939 577.696 327.23 579.861 311.393 584.611 C 308.356 585.522 307.636 586.146 306.008 588.845 L 305.743 595.497 C 303.715 639.698 305.427 684.62 305.426 728.913 C 291.715 730.703 202.553 743.712 196.939 741.168 L 196.381 739.174 z M 793.873 452.374 C 813.053 451.661 832.443 448.479 851.495 446.16 C 882.989 442.327 913.99 437.195 945.338 432.537 C 956.333 430.904 967.429 430.039 978.397 428.335 C 990.991 426.377 1003.43 423.48 1016.04 421.576 C 1116.88 407.293 1217.32 390.263 1317.23 370.504 C 1353.59 363.33 1390.43 358.368 1426.12 348.099 L 1425.28 347.19 L 1423.51 347.62 C 1402.58 348.531 1381.51 352.214 1360.72 354.844 C 1325.59 359.179 1290.49 363.738 1255.43 368.52 C 1148.18 383.382 1040.55 398.789 934.137 418.863 C 918.751 421.765 903.729 425.54 888.446 428.817 C 869.947 432.784 851.189 435.889 832.643 439.755 C 818.886 442.622 805.046 446.659 791.141 448.52 L 790.433 449.586 L 793.873 452.374 z M 462.262 536.118 C 487.241 534.748 516.152 530.55 539.626 521.836 C 549.145 518.303 565.622 492.713 572.675 483.543 C 589.886 461.514 607.419 439.739 625.267 418.224 C 633.74 408.028 672.81 364.959 675.407 358.504 C 675.511 358.244 675.565 357.967 675.644 357.698 L 674.808 356.848 C 649.875 373.895 626.222 393.948 602.796 413.008 C 568.473 440.934 534.411 468.937 500.856 497.793 C 490.861 506.388 468.784 522.871 461.614 532.643 C 461.306 534.638 460.999 534.265 462.262 536.118 z" data-c-fill="5924000000000"/><path fill="#ffffff" d="M 1074.93 111.869 L 1075.56 112.525 C 1075.31 116.501 1062.58 137.1 1059.84 142.874 C 1039.37 185.963 1020.83 230.038 999.743 272.827 C 1056.98 275.183 1114.53 276.057 1171.82 276.993 C 1126.16 295.437 1081.74 316.14 1036.73 336.08 C 986.383 358.302 935.716 379.801 884.749 400.57 C 842.622 417.826 800.238 434.449 757.612 450.435 C 860.583 334.986 966.388 222.096 1074.93 111.869 z" data-c-fill="1a3158" fill-opacity="1"/><path fill="rgb(103,70,183)" d="M 305.426 728.913 C 305.427 684.62 303.715 639.698 305.743 595.497 C 307.165 728.563 305.67 861.77 305.686 994.852 L 305.715 1181.4 C 305.72 1214.26 306.409 1247.29 305.555 1280.13 C 305.456 1283.93 305.573 1288.67 303.659 1292.04 C 286.182 1267.2 272.401 1236.7 260.041 1209.03 C 207.241 1090.83 185.988 961.245 190.029 832.258 C 190.454 818.703 192.03 805.15 192.906 791.615 C 194.043 774.046 194.53 756.724 196.381 739.174 L 196.939 741.168 C 202.553 743.712 291.715 730.703 305.426 728.913 z" data-c-fill="6746b7"/><path fill="rgb(89,36,233)" d="M 360.222 898.787 L 459.114 879.886 C 478.633 876.211 498.948 871.295 518.787 870.21 C 535.008 869.322 567.8 873.051 580.321 884.249 C 585.607 891.266 591.538 898.344 595.891 905.974 C 605.673 923.12 607.843 946.959 605.093 966.199 C 603.342 978.449 599.343 988.829 594.749 1000.16 C 589.67 1007.92 584.222 1014.75 577.326 1020.99 C 573.916 1024.07 569.538 1026.97 566.663 1030.52 C 565.252 1032.27 565.211 1033.11 565.02 1035.25 C 568.141 1040.05 574.201 1040.45 579.406 1041.55 L 580.192 1041.71 L 585.606 1045.88 L 584.815 1046.84 C 604.105 1058.95 616.646 1071.47 621.79 1094.34 C 629.109 1126.86 624.769 1162.83 606.672 1191.12 C 581.743 1230.08 538.971 1245.29 495.87 1254.44 C 472.655 1259.37 449.173 1263.28 425.893 1267.94 C 404.695 1272.19 383.199 1277.42 361.796 1280.44 C 356.371 1266.56 359.058 1139.98 359.082 1118.07 C 359.016 1072.43 357.51 1026.1 359.712 980.524 L 360.222 898.787 z M 460.495 1180.42 C 459.102 1160.4 460.097 1139.62 461.125 1119.59 C 481.675 1115.07 502.082 1109.82 522.647 1105.3 C 519.062 1098.22 515.794 1095.7 508.652 1092.6 C 485.747 1093.76 464.903 1099.22 442.979 1105.56 C 441.969 1128.98 440.391 1161.44 443.07 1184.33 C 449.21 1183.52 454.629 1182.45 460.495 1180.42 z M 440.865 1010.17 C 440.971 1016.74 439.987 1024.33 444.408 1029.68 C 448.768 1031.42 453.129 1030.41 457.332 1028.25 C 457.723 1028.05 458.072 1027.78 458.442 1027.54 C 458.864 1017.87 455.23 981.543 460.301 975.93 C 461.967 974.087 464.345 973.307 466.699 972.789 C 472.264 971.564 478.707 971.693 484.414 971.138 C 494.795 970.129 505.162 968.738 515.515 967.468 C 515.778 963.523 515.522 959.448 512.753 956.345 C 508.54 951.623 500.954 950.87 494.984 950.81 C 478.016 950.64 457.196 955.706 441.553 962.562 C 440.083 978.419 440.396 994.271 440.865 1010.17 z" data-c-fill="5924000000000"/><path fill="rgb(50,29,107)" d="M 584.815 1046.84 C 604.105 1058.95 616.646 1071.47 621.79 1094.34 C 629.109 1126.86 624.769 1162.83 606.672 1191.12 C 581.743 1230.08 538.971 1245.29 495.87 1254.44 C 472.655 1259.37 449.173 1263.28 425.893 1267.94 C 404.695 1272.19 383.199 1277.42 361.796 1280.44 C 356.371 1266.56 359.058 1139.98 359.082 1118.07 C 368.841 1117.84 379.203 1115.49 388.883 1113.99 L 442.979 1105.56 C 441.969 1128.98 440.391 1161.44 443.07 1184.33 C 449.21 1183.52 454.629 1182.45 460.495 1180.42 C 459.102 1160.4 460.097 1139.62 461.125 1119.59 C 481.675 1115.07 502.082 1109.82 522.647 1105.3 C 519.062 1098.22 515.794 1095.7 508.652 1092.6 C 513.877 1086.56 576.538 1048.79 584.815 1046.84 z" data-c-fill="321d6b"/><path fill="#ffffff" d="M 522.647 1105.3 C 530.678 1115.29 534.931 1123.09 533.375 1136.42 C 532.107 1147.28 527.244 1157.08 518.443 1163.81 C 502.052 1176.35 479.822 1176.22 460.495 1180.42 C 459.102 1160.4 460.097 1139.62 461.125 1119.59 C 481.675 1115.07 502.082 1109.82 522.647 1105.3 z" data-c-fill="1a3158" fill-opacity="1"/><path fill="rgb(103,70,183)" d="M 458.442 1027.54 C 458.864 1017.87 455.23 981.543 460.301 975.93 C 461.967 974.087 464.345 973.307 466.699 972.789 C 472.264 971.564 478.707 971.693 484.414 971.138 C 494.795 970.129 505.162 968.738 515.515 967.468 C 516.304 971.522 516.981 975.636 517.902 979.659 C 544.853 992.722 557.387 987.197 585.599 987.906 C 589.243 991.804 592.04 995.568 594.749 1000.16 C 589.67 1007.92 584.222 1014.75 577.326 1020.99 C 573.916 1024.07 569.538 1026.97 566.663 1030.52 C 565.252 1032.27 565.211 1033.11 565.02 1035.25 C 568.141 1040.05 574.201 1040.45 579.406 1041.55 L 580.192 1041.71 L 585.606 1045.88 L 584.815 1046.84 C 576.538 1048.79 513.877 1086.56 508.652 1092.6 C 485.747 1093.76 464.903 1099.22 442.979 1105.56 L 388.883 1113.99 C 379.203 1115.49 368.841 1117.84 359.082 1118.07 C 359.016 1072.43 357.51 1026.1 359.712 980.524 C 359.941 994.314 359.968 1008.11 359.794 1021.9 C 383.771 1018.97 419.639 1022.38 440.865 1010.17 C 440.971 1016.74 439.987 1024.33 444.408 1029.68 C 448.768 1031.42 453.129 1030.41 457.332 1028.25 C 457.723 1028.05 458.072 1027.78 458.442 1027.54 z" data-c-fill="6746b7"/><path fill="#ffffff" d="M 458.442 1027.54 C 458.864 1017.87 455.23 981.543 460.301 975.93 C 461.967 974.087 464.345 973.307 466.699 972.789 C 472.264 971.564 478.707 971.693 484.414 971.138 C 494.795 970.129 505.162 968.738 515.515 967.468 C 516.304 971.522 516.981 975.636 517.902 979.659 C 517.549 991.398 516.41 1002.97 507.424 1011.68 C 495.207 1023.51 474.425 1024.63 458.442 1027.54 z" data-c-fill="1a3158" fill-opacity="1"/><path fill="rgb(50,29,107)" d="M 1443.22 806.264 L 1448.69 804.233 C 1476.38 817.115 1498.12 827.211 1529.16 820.525 C 1520.72 836.478 1510.98 851.801 1501.85 867.37 C 1485.02 896.148 1468.35 925.024 1451.84 953.994 C 1441.52 972.322 1430 990.903 1422.51 1010.59 C 1430.04 1008.97 1437.63 1007.49 1445.02 1005.25 C 1460.26 1003.92 1475.74 1000.58 1490.84 998.009 C 1517.61 993.499 1544.35 988.853 1571.07 984.071 L 1572.7 985.207 C 1572.83 998.476 1575.67 1054.38 1571.06 1062.92 C 1558.49 1068.74 1531.54 1071.87 1516.86 1074.87 L 1377.97 1103.12 L 1335.46 1111.75 C 1327.54 1113.3 1318.75 1114.1 1311.1 1116.6 C 1309.13 1102.14 1306.74 1055.1 1309.99 1042.02 C 1313.49 1027.92 1325.21 1013.61 1332.49 1000.97 L 1405.89 875.138 C 1417.53 855.214 1430.65 835.283 1440.9 814.652 C 1442.29 811.837 1443.09 809.41 1443.22 806.264 z" data-c-fill="321d6b"/><path fill="rgb(89,36,233)" d="M 1014.26 861.65 L 1012.26 861.525 C 1011.38 860.559 1010.72 860.097 1010.36 858.815 C 1007.74 849.498 1006.05 794.909 1010.06 787.424 C 1025.71 780.039 1047.44 778.661 1064.46 775.607 C 1091.13 770.82 1117.78 765.873 1144.39 760.768 C 1165.42 756.779 1186.43 752.653 1207.41 748.39 C 1221.8 745.467 1236.3 742.015 1250.86 740.062 C 1258.53 739.033 1265.34 738.626 1272.87 740.887 C 1272.52 758.208 1274.13 787.767 1269.86 803.788 C 1264.6 823.547 1249.52 841.887 1239.64 859.579 C 1217.14 899.866 1196.51 941.947 1170.55 980.146 C 1151.31 984.673 1067.62 1019.75 1056.8 1014.25 C 1056.58 1014.14 1056.38 1013.97 1056.17 1013.83 C 1070.69 987.137 1085.51 960.61 1100.63 934.252 C 1106.6 923.874 1143.18 864.903 1144.38 858.338 C 1147.34 851.765 1151.81 846.142 1154.94 839.698 C 1142.23 840.932 1129.56 843.808 1117.01 846.131 L 1064.81 855.565 C 1048.27 858.622 1031.15 862.371 1014.26 861.65 z" data-c-fill="5924000000000"/><path fill="rgb(50,29,107)" d="M 864.877 1043.19 C 884.34 1042.28 904.955 1037.61 924.282 1034.77 C 933.344 1033.44 944.093 1033.22 952.8 1030.88 C 952.874 1078.1 950.57 1121.11 915.054 1156.49 C 877.82 1193.59 819.598 1210.19 768.006 1209.85 C 750.127 1209.73 734.616 1207.37 718.246 1199.97 L 716.566 1200.01 C 709.49 1194.36 702.523 1188.78 696.489 1181.98 C 664.564 1145.99 666.95 1086.66 669.717 1041.42 C 685.686 1044.67 701.589 1045.15 717.758 1046.67 C 731.285 1047.94 744.752 1049.88 758.339 1050.4 L 758.461 1051.23 C 761.322 1072.07 755.149 1102.48 774.067 1116.87 C 777.194 1119.25 781.258 1121.13 784.859 1122.69 C 790.622 1124.13 796.29 1124.89 802.227 1124.89 C 819.444 1124.88 835.793 1118.83 847.911 1106.38 C 864.814 1089.01 865.109 1065.95 864.877 1043.19 z" data-c-fill="321d6b"/><path fill="#ffffff" d="M 655.096 640.29 C 655.357 640.415 655.636 640.508 655.879 640.665 C 662.017 644.625 678.384 693.158 681.021 702.552 C 673.375 704.439 665.521 705.417 657.739 706.576 C 649.533 708.218 641.077 709.285 632.786 710.42 C 637.045 690.375 647.904 660.06 655.096 640.29 z" data-c-fill="1a3158" fill-opacity="1"/><path fill="rgb(50,29,107)" d="M 1056.17 1013.83 C 1056.38 1013.97 1056.58 1014.14 1056.8 1014.25 C 1067.62 1019.75 1151.31 984.673 1170.55 980.146 C 1160.63 1000.57 1148.88 1020.43 1138.15 1040.47 C 1134.47 1047.35 1129.31 1054.87 1126.98 1062.29 C 1127.61 1063.59 1127.36 1063.82 1128.86 1064.3 C 1132.82 1065.58 1140.39 1063.36 1143.81 1061.34 C 1144.78 1060.76 1145.69 1060.09 1146.58 1059.41 C 1158.85 1058.49 1170.93 1055.26 1182.94 1052.7 C 1206.09 1047.75 1229.62 1042.16 1253.12 1039.24 C 1260.26 1038.35 1266.07 1037.63 1272.08 1042.28 C 1272.05 1053.43 1273.52 1110.4 1270.12 1116.25 C 1255.99 1124.72 1211.46 1130.2 1193.21 1133.7 L 1078.06 1156.9 C 1054.54 1161.58 1030.21 1164.84 1007.23 1171.65 C 1006.09 1169.56 1005.23 1167.33 1004.67 1165.01 C 1002.9 1157.4 1004.38 1148.5 1004.13 1140.66 C 1003.76 1129.36 1001.72 1116.93 1004.18 1105.79 C 1007.67 1090 1045.64 1031.65 1056.17 1013.83 z" data-c-fill="321d6b"/><path fill="#ffffff" d="M 1106.05 531.391 C 1111.33 530.711 1117.92 530.276 1123.15 531.349 C 1129.74 532.648 1135.45 536.714 1138.84 542.514 C 1143.6 550.659 1143.86 561.718 1141.54 570.712 C 1138.39 582.915 1130.55 589.995 1119.94 595.998 C 1109.7 600.14 1099.89 601.482 1088.93 602.064 C 1087.85 579.547 1088.06 556.522 1089.01 534.016 C 1094.6 532.599 1100.34 532.069 1106.05 531.391 z" data-c-fill="1a3158" fill-opacity="1"/><path fill="rgb(89,36,233)" d="M1310.01 732.884C1330.04 727.02 1563.58 682.591 1568.52 683.328 1572.98 702.501 1577.56 730.518 1570.68 749.542 1567.04 759.583 1560.68 768.962 1555.2 778.101 1547.15 791.517 1539.09 804.944 1530.83 818.231 1530.32 819.053 1529.79 819.789 1529.16 820.525 1498.12 827.211 1476.38 817.115 1448.69 804.233 1452.82 798.925 1456.15 793.762 1459.05 787.685 1439.86 788.272 1421.29 793.012 1402.57 796.912 1388.58 799.826 1374.5 802.27 1360.51 805.201 1343.92 808.677 1328.93 812.346 1311.83 811.961 1308.62 790.756 1310.08 755.291 1310.01 732.884zM865.113 806.538C890.469 798.326 925.969 794.207 952.68 793.236 951.97 834.37 953.816 875.651 953.976 916.81 954.026 929.698 955.908 946.058 953.457 958.624 953.404 982.679 953.678 1006.85 952.8 1030.88 944.093 1033.22 933.344 1033.44 924.282 1034.77 904.955 1037.61 884.34 1042.28 864.877 1043.19L864.881 961.104C864.365 909.6 864.847 858.044 865.113 806.538z" data-c-fill="5924000000000"/><path fill="rgb(103,70,183)" d="M 953.457 958.624 C 953.404 982.679 953.678 1006.85 952.8 1030.88 C 944.093 1033.22 933.344 1033.44 924.282 1034.77 C 904.955 1037.61 884.34 1042.28 864.877 1043.19 L 864.881 961.104 C 882.065 961.193 941.504 963.976 953.457 958.624 z" data-c-fill="6746b7"/><path fill="rgb(89,36,233)" d="M 669.993 844.611 C 683.978 840.966 698.975 839.323 713.241 836.928 C 726.725 834.665 740.909 831.287 754.532 830.665 C 760.899 863.434 758.132 906.037 758.032 940.212 L 758.339 1050.4 C 744.752 1049.88 731.285 1047.94 717.758 1046.67 C 701.589 1045.15 685.686 1044.67 669.717 1041.42 C 667.673 1023.9 669.402 1000.15 669.423 982.053 L 669.993 844.611 z" data-c-fill="5924000000000"/><path fill="rgb(50,29,107)" d="M 1655.33 1076.62 C 1683.03 1087.07 1721.33 1108.02 1740.67 1130.45 C 1675.38 1341.39 1539.91 1505 1344.89 1608.02 C 1162.87 1704.17 939.354 1720.21 743.655 1659.68 C 604.473 1616.63 478.309 1529.02 384.443 1418.3 C 363.575 1393.69 341.403 1366.72 326.309 1338.06 C 325.949 1337.38 325.599 1336.69 325.26 1336 L 327.181 1334.6 C 333.065 1335.68 351.787 1350.98 355.83 1355.92 C 364.485 1364.77 380.606 1365.38 391.794 1369.5 C 401.971 1373.4 415.358 1372.56 425.966 1371.16 C 451.788 1367.76 477.19 1361.28 502.816 1356.65 L 696.183 1321.21 L 1229.41 1225.78 C 1289.37 1215.36 1349.1 1202.78 1409.23 1193.39 C 1437.77 1185.78 1468 1181.59 1497.03 1175.95 L 1654.86 1145.41 C 1654.89 1122.57 1654.19 1099.42 1655.33 1076.62 z M 671.09 1420.15 C 689.046 1419.8 707.14 1415.5 724.765 1412.29 L 796.376 1399.35 C 883.382 1383.8 970.58 1368.14 1057.8 1353.88 C 1071.3 1351.44 1085.01 1348.33 1098.71 1347.44 C 1052.46 1403.49 1010.82 1463.85 969.745 1523.75 C 950.148 1552.33 928.129 1581.4 911.513 1611.79 C 931.713 1593.24 952.491 1564.76 969.996 1543.21 C 1009 1494.65 1047.72 1445.85 1086.14 1396.84 C 1099.54 1379.83 1112.65 1362.58 1126.16 1345.67 C 1134.16 1335.67 1144.56 1325.03 1150.74 1313.96 L 1150.11 1313.55 C 1123.21 1317.22 1096.41 1325.02 1069.79 1330.38 C 989.469 1346.7 909.365 1364.07 829.498 1382.49 L 726.27 1406.03 C 709.035 1409.99 689.413 1412.93 672.996 1419.4 L 671.801 1419.86 C 671.563 1419.95 671.327 1420.06 671.09 1420.15 z M 1246.51 1457.01 C 1254.41 1450.99 1261.23 1442.73 1268.25 1435.67 L 1313.41 1390.01 L 1453.94 1248.19 C 1460.94 1241.07 1505.39 1198.18 1507.14 1193.13 L 1507.07 1192.48 C 1489.73 1196.12 1472.2 1199 1454.75 1202.03 C 1444.51 1203.8 1432.3 1204.65 1422.81 1208.7 C 1420.14 1209.85 1418.15 1212.55 1416.59 1214.91 C 1367.54 1290.93 1315.32 1364.85 1260.06 1436.48 C 1256.72 1440.86 1245.92 1452.22 1246.51 1457.01 z" data-c-fill="321d6b"/><path fill="rgb(127,112,166)" d="M 1409.23 1193.39 L 1410.72 1195.01 C 1410.43 1199.43 1409.9 1203.62 1409.09 1207.97 C 1387.42 1215.02 1364.41 1218.24 1342.1 1222.71 L 1235.37 1244.46 C 1205.1 1250.71 1175.08 1258.23 1144.77 1264.18 C 1008.82 1290.44 872.388 1314.14 735.547 1335.26 L 545.111 1367.81 C 513.885 1373.13 482.568 1379.87 451.015 1382.94 C 432.62 1384.73 407.929 1387.61 391.132 1378.76 C 388.952 1377.61 387.521 1376.59 386.377 1374.34 C 386.783 1372.66 386.46 1372.33 388.009 1371.36 C 389.264 1370.58 390.427 1370.05 391.794 1369.5 C 401.971 1373.4 415.358 1372.56 425.966 1371.16 C 451.788 1367.76 477.19 1361.28 502.816 1356.65 L 696.183 1321.21 L 1229.41 1225.78 C 1289.37 1215.36 1349.1 1202.78 1409.23 1193.39 z" data-c-fill="7f70a6"/><path fill="rgb(103,70,183)" d="M 1020.34 1378.86 L 1023 1379.23 L 1023.93 1380.5 C 1023.35 1387.47 1014.71 1397.75 1011.18 1404.19 C 1001.31 1422.19 992.033 1440.54 981.901 1458.39 C 971.702 1476.37 960.527 1493.85 949.605 1511.39 C 941.855 1523.84 934.479 1537.98 924.435 1548.68 C 928.967 1519.77 934.739 1491.07 939.024 1462.11 C 933.33 1463.85 927.838 1466.15 922.314 1468.35 C 893.898 1475.87 863.518 1481.56 834.358 1484.91 C 842.593 1477.58 851.796 1471.09 860.627 1464.5 C 911.066 1426.84 962.873 1403.58 1020.34 1378.86 z" data-c-fill="6746b7"/><path fill="rgb(89,36,233)" d="M 1632.19 736.272 C 1689.13 734.411 1731.17 726.37 1784.52 706.08 C 1803.19 698.979 1821.9 691.345 1839.64 682.124 C 1849.01 677.255 1888.57 652.535 1895.44 651.461 C 1896.33 655.627 1888.14 666.409 1885.74 670.604 C 1876.09 687.479 1868.88 706.501 1862.36 724.767 C 1855.06 745.238 1849.31 766.378 1843.44 787.299 C 1830.19 834.251 1819.15 881.797 1810.35 929.78 C 1806.41 952.49 1804.04 975.318 1800.44 998.043 C 1796.79 1031.01 1794.39 1064.67 1793.85 1097.86 C 1793.52 1118.31 1794.73 1138.93 1793.79 1159.35 C 1754.44 1120.16 1725.8 1093.94 1675.46 1068.43 C 1661.56 1061.38 1646.33 1056.71 1632.65 1049.49 C 1629.69 1039.91 1631.47 966.922 1631.59 951.703 C 1630.98 912.074 1631.46 872.357 1631.49 832.719 C 1631.52 800.62 1630.86 768.335 1632.19 736.272 z" data-c-fill="5924000000000"/><path fill="rgb(103,70,183)" d="M 1631.59 951.703 C 1657.93 956.78 1784.88 986.369 1800.44 998.043 C 1796.79 1031.01 1794.39 1064.67 1793.85 1097.86 C 1793.52 1118.31 1794.73 1138.93 1793.79 1159.35 C 1754.44 1120.16 1725.8 1093.94 1675.46 1068.43 C 1661.56 1061.38 1646.33 1056.71 1632.65 1049.49 C 1629.69 1039.91 1631.47 966.922 1631.59 951.703 z" data-c-fill="6746b7"/><path fill="rgb(50,29,107)" d="M 2000.7 580.509 C 2023.6 595.282 2031.85 622.554 2037.33 647.933 C 2043.6 676.954 2045.15 706.904 2045.64 736.504 C 2047.17 827.745 2034.16 917.186 2013.55 1005.88 C 1995.31 1076.01 1951.29 1233.21 1888.31 1270.86 C 1883.56 1273.7 1878.79 1275.5 1873.44 1276.82 C 1871.52 1276.11 1869.81 1275.02 1868.09 1273.94 C 1846.77 1260.57 1839.15 1234.34 1834.03 1210.92 C 1822.38 1157.54 1824.67 1102.67 1827.33 1048.53 C 1827.76 1039.75 1827.57 1017.64 1832 1010.67 C 1846.79 1010.92 1877.98 1018.17 1889.75 1013.97 C 1896.09 1011.71 1902.29 1007.37 1908.2 1004.12 C 1915.3 1000.23 1922.64 996.722 1929.91 993.158 C 1936.83 981.425 1939.72 959.214 1943 945.463 C 1967.62 842.334 1980.47 730.983 1964.4 625.609 C 1959.96 624.249 1956.79 621.397 1953.4 618.4 C 1961.24 604.644 1970.5 594.766 1984.98 588.093 C 1990.02 585.769 1995.53 584.149 2000.1 580.945 C 2000.3 580.804 2000.5 580.655 2000.7 580.509 z" data-c-fill="321d6b"/><path fill="rgb(89,36,233)" d="M 2000.7 580.509 C 2023.6 595.282 2031.85 622.554 2037.33 647.933 C 2043.6 676.954 2045.15 706.904 2045.64 736.504 C 2047.17 827.745 2034.16 917.186 2013.55 1005.88 C 1991.98 1005.66 1970.43 1006.74 1948.86 1006.81 C 1973.27 910.011 1993.42 809.881 1991.71 709.678 C 1991.36 689.552 1990.82 668.9 1987.51 648.999 C 1986.23 641.336 1984.38 630.72 1977.36 626.152 C 1973.16 623.417 1968.95 624.614 1964.4 625.609 C 1959.96 624.249 1956.79 621.397 1953.4 618.4 C 1961.24 604.644 1970.5 594.766 1984.98 588.093 C 1990.02 585.769 1995.53 584.149 2000.1 580.945 C 2000.3 580.804 2000.5 580.655 2000.7 580.509 z" data-c-fill="5924000000000"/><path fill="#ffffff" d="M1964.4 625.609C1968.95 624.614 1973.16 623.417 1977.36 626.152 1984.38 630.72 1986.23 641.336 1987.51 648.999 1990.82 668.9 1991.36 689.552 1991.71 709.678 1993.42 809.881 1973.27 910.011 1948.86 1006.81 1943.61 1024.97 1939.23 1043.35 1933.64 1061.43 1922.45 1097.63 1883.85 1212.18 1853.8 1230.6 1851.45 1232.03 1850.35 1232.14 1847.71 1231.62 1844.46 1227.24 1844.01 1224.63 1846.19 1219.47 1852.59 1204.28 1866.01 1188.36 1873.69 1172.41 1885.42 1148.03 1934.9 1012.68 1930.26 994.349 1930.16 993.948 1930.03 993.555 1929.91 993.158 1936.83 981.425 1939.72 959.214 1943 945.463 1967.62 842.334 1980.47 730.983 1964.4 625.609zM1758.44 1151.15C1759.21 1151.4 1760.06 1151.61 1760.77 1152.03 1767.43 1155.92 1776.57 1169.33 1778.26 1177.06 1780.4 1186.78 1771.58 1203.01 1767.97 1212.02 1748.77 1259.85 1726.61 1305.84 1699.36 1349.64 1575.12 1549.35 1385.47 1679.44 1157.52 1732.04 961.951 1777.17 729.268 1740.93 558.43 1634.51L547.823 1627.36C552.652 1626.24 557.289 1624.96 561.521 1622.27 564.325 1620.5 565.217 1619.01 565.905 1615.82 564.213 1608.32 556.181 1603.81 550.613 1599.07 569.294 1604.28 604.802 1626.38 624.274 1636.09 662.166 1654.71 701.38 1670.51 741.598 1683.36 950.494 1746.93 1176.09 1724.85 1368.69 1621.98 1555.26 1522.14 1695.21 1353.08 1758.44 1151.15z" data-c-fill="1a3158" fill-opacity="1"/><path fill="rgb(103,70,183)" d="M 1651.37 412.387 C 1656.98 416.33 1661.01 423.861 1664.85 429.547 C 1693.69 472.24 1716.64 520.444 1735.41 568.336 C 1740.76 581.997 1776.23 680.411 1771.36 688.36 C 1768.42 693.153 1755.54 696.401 1750.24 698.395 C 1718.22 710.518 1684.75 716.046 1650.66 717.77 L 1650.76 520.259 C 1650.74 484.372 1649.95 448.235 1651.37 412.387 z" data-c-fill="6746b7"/><path fill="#ffffff" d="M 1873.44 1276.82 C 1867.35 1277.07 1861.82 1277.3 1856.05 1274.88 C 1842.79 1269.33 1833.57 1255.19 1828.06 1242.49 C 1816.49 1215.81 1813.05 1184.57 1810.77 1155.82 C 1799.97 1019.85 1832.48 840.774 1883.16 713.468 C 1898.79 674.23 1931.68 597.85 1973.08 580.502 C 1982.75 576.451 1991.17 576.665 2000.7 580.509 C 2000.5 580.655 2000.3 580.804 2000.1 580.945 C 1995.53 584.149 1990.02 585.769 1984.98 588.093 C 1970.5 594.766 1961.24 604.644 1953.4 618.4 C 1940.43 637.735 1927.33 656.763 1916.73 677.545 C 1891.57 726.896 1872.38 789.136 1859.5 843.019 C 1856.79 854.34 1853.46 866.161 1852.15 877.734 C 1865.45 879.778 1878.7 881.317 1891.91 883.921 C 1902.23 887.218 1908.79 890.961 1914.92 900.3 C 1913.58 907.53 1908.21 918.463 1910.5 925.4 C 1912.44 926.582 1914.21 927.299 1916.35 928.084 C 1918.71 928.953 1919.82 929.383 1921.27 931.419 C 1924.59 943.602 1921.12 955.911 1914.87 966.595 C 1907.25 979.615 1896.01 986.058 1881.94 990.213 C 1866.24 988.457 1850.11 985.793 1834.31 985.652 C 1833.87 989.511 1830.18 1007.99 1832 1010.67 C 1827.57 1017.64 1827.76 1039.75 1827.33 1048.53 C 1824.67 1102.67 1822.38 1157.54 1834.03 1210.92 C 1839.15 1234.34 1846.77 1260.57 1868.09 1273.94 C 1869.81 1275.02 1871.52 1276.11 1873.44 1276.82 z" data-c-fill="1a3158" fill-opacity="1"/><path fill="rgb(127,112,166)" d="M 1891.91 883.921 C 1902.23 887.218 1908.79 890.961 1914.92 900.3 C 1913.58 907.53 1908.21 918.463 1910.5 925.4 C 1912.44 926.582 1914.21 927.299 1916.35 928.084 C 1918.71 928.953 1919.82 929.383 1921.27 931.419 C 1924.59 943.602 1921.12 955.911 1914.87 966.595 C 1907.25 979.615 1896.01 986.058 1881.94 990.213 C 1870.94 977.812 1863.86 963.79 1863.18 947.006 C 1862.05 919.095 1874.21 903.359 1891.91 883.921 z" data-c-fill="7f70a6"/><path fill="rgb(50,29,107)" d="M 301.079 330.262 C 301.793 333.339 301.52 334.519 300.468 337.537 C 293.404 357.815 234.552 455.158 236.084 464.148 C 242.704 468.054 249.613 470.99 255.066 476.514 C 233.315 519.979 213.841 565.62 200.384 612.352 C 179.016 686.548 170.362 762.033 168.948 839.031 C 168.489 864.043 167.917 889.042 169.035 914.048 C 173.094 992.592 187.388 1070.27 211.553 1145.11 C 232.618 1208.56 263.508 1277.97 298.094 1335.04 C 310.903 1356.17 325.348 1376.31 339.584 1396.49 C 345.399 1404.74 375.505 1442.73 374.157 1448.6 C 371.815 1447.39 369.909 1445.59 367.573 1444.41 C 361.856 1441.51 356.201 1440.2 351.125 1435.97 C 340.502 1427.13 331.689 1414.52 323.409 1403.52 C 306.313 1381.09 290.157 1357.95 274.982 1334.18 C 268.255 1323.63 262.394 1312.51 255.562 1302.06 L 254.576 1303.09 C 246.953 1311.13 242.531 1333.48 237.862 1336.16 C 234.229 1338.25 7.03724 1388.21 4.45512 1388.08 C 2.59731 1387.98 2.18155 1387.53 0.971261 1386.23 C 1.46471 1372.18 1.10323 1357.99 1.13831 1343.93 C 2.66774 1316.69 1.71634 1288.97 1.81136 1261.66 L 2.04111 1101.98 L 2.23915 948.04 C 2.6739 889.175 3.7386 830.119 2.7167 771.262 C 4.61046 771.722 6.50442 772.162 8.47221 771.915 C 12.519 771.407 21.1351 767.272 23.7081 763.996 C 25.9964 886.14 27.0126 1008.31 26.7565 1130.47 C 26.0477 1192.4 23.9837 1254.21 23.8788 1316.17 C 23.8538 1330.93 23.1341 1345.81 23.5241 1360.55 L 221.69 1314.57 C 219.708 1308.84 217.758 1304.04 214.153 1299.1 C 208.25 1304.55 174.775 1307.83 165.688 1308.45 L 166.189 1307.41 L 166.498 1308.49 L 165.404 1307.77 C 177.307 1302.65 197.611 1300.71 210.706 1298.84 C 195.179 1261.12 175.328 1223.92 165.096 1184.23 C 159.794 1166.78 155.449 1149.06 150.483 1131.52 C 146.09 1116 140.383 1100.05 137.995 1084.11 C 136.163 1077.47 135.078 1070.52 133.401 1063.81 C 130.387 1045.3 125.922 1026.96 123.209 1008.43 C 119.789 985.059 118.267 961.05 116.628 937.488 C 114.314 904.221 112.234 871.351 113.973 837.994 C 114.286 831.995 113.888 825.729 114.645 819.813 C 117.207 808.35 116.4 796.162 116.935 784.467 C 117.753 766.59 119.126 748.179 121.4 730.435 C 131.435 652.128 168.819 518.16 211.551 451.868 C 222.742 427.942 280.24 341.317 301.079 330.262 z" data-c-fill="321d6b"/><path fill="rgb(89,36,233)" d="M 211.551 451.868 C 217.702 456.398 224.024 461.065 228.949 466.969 C 229.022 496.372 207.863 524.588 197.337 551.493 C 189.388 571.812 182.561 593.487 176.82 614.535 C 172.295 631.124 169.239 648.123 165.949 664.987 C 159.842 696.297 154.397 727.179 152 759.05 C 150.971 772.725 149.653 823.394 144.132 832.525 C 138.995 837.063 127.144 837.131 120.462 837.244 C 119.706 831.718 119.646 824.687 116.7 819.917 L 115.088 820.106 L 114.645 819.813 C 117.207 808.35 116.4 796.162 116.935 784.467 C 117.753 766.59 119.126 748.179 121.4 730.435 C 131.435 652.128 168.819 518.16 211.551 451.868 z" data-c-fill="5924000000000"/><path fill="rgb(104,53,71)" d="M 133.401 1063.81 C 136.298 1064.68 138.191 1064.61 139.694 1067.54 C 141.295 1070.65 140.857 1076.69 141.368 1080.24 C 145.622 1100.58 151.94 1120.71 157.454 1140.74 C 161.182 1154.29 164.158 1169.02 169.044 1182.15 C 173.936 1202.86 183.226 1223.7 191.444 1243.29 C 194.563 1250.72 214.635 1291.98 214.766 1296.07 C 214.789 1296.79 214.409 1298.4 214.153 1299.1 C 208.25 1304.55 174.775 1307.83 165.688 1308.45 L 166.189 1307.41 L 166.498 1308.49 L 165.404 1307.77 C 177.307 1302.65 197.611 1300.71 210.706 1298.84 C 195.179 1261.12 175.328 1223.92 165.096 1184.23 C 159.794 1166.78 155.449 1149.06 150.483 1131.52 C 146.09 1116 140.383 1100.05 137.995 1084.11 C 136.163 1077.47 135.078 1070.52 133.401 1063.81 z" data-c-fill="683547"/><path fill="#ffffff" d="M 370.285 266.672 C 380.715 257.015 390.529 246.735 400.907 237.026 C 423.34 216.092 446.742 196.221 471.035 177.477 C 626.472 57.9823 818.717 -3.56144 1014.65 3.44824 C 1243.44 10.3653 1459.7 109.508 1614.27 278.329 C 1697.61 368.915 1760.83 476.122 1799.76 592.895 C 1807.79 616.417 1818.07 643.43 1819.79 668.354 C 1811.72 672.537 1802.9 676.298 1794.31 679.291 L 1793.77 677.776 C 1786.97 658.416 1782.93 637.937 1777.12 618.239 C 1768.45 588.881 1757.28 559.862 1745.3 531.684 C 1682.42 386.679 1579.41 262.661 1448.4 174.233 C 1414.44 151.886 1379.03 131.834 1342.39 114.209 C 1263.39 75.6957 1173.34 49.7707 1085.95 40.2083 C 1050.81 36.3625 1015.94 35.5046 980.626 35.5919 C 893.962 35.8061 807.899 47.7571 725.7 76.0757 C 565.774 130.347 426.029 231.773 324.86 367.001 C 299.048 401.698 276.641 439.077 255.066 476.514 C 249.613 470.99 242.704 468.054 236.084 464.148 C 234.552 455.158 293.404 357.815 300.468 337.537 C 301.52 334.519 301.793 333.339 301.079 330.262 C 301.433 330.095 301.784 329.919 302.143 329.759 C 305.017 328.476 309.11 328.575 312.226 328.18 C 326.875 326.325 344.241 323.411 350.734 308.405 C 354.569 299.54 357.154 289.5 359.718 280.187 C 356.953 270.68 353.581 261.985 349.508 252.992 C 356.216 258.03 363.091 262.387 370.285 266.672 z" data-c-fill="1a3158" fill-opacity="1"/><path fill="rgb(89,36,233)" d="M 2.12671 491.861 C 16.1752 486.389 33.7567 484.471 48.5451 481.072 C 74.9272 475.008 138.735 456.104 162.534 458.874 C 166.873 459.379 169.623 460.05 172.33 463.482 C 172.365 465.596 172.392 466.412 171.268 468.296 C 169.713 470.904 167.342 473.337 164.477 474.44 C 150.828 479.694 125.517 484.03 110.189 487.57 C 81.1401 494.28 52.2791 501.744 23.2789 508.649 L 23.5233 686.559 C 23.5638 712.369 24.7574 738.189 23.7081 763.996 C 21.1351 767.272 12.519 771.407 8.47221 771.915 C 6.50442 772.162 4.61046 771.722 2.7167 771.262 C 0.882439 760.137 1.81395 747.786 1.83204 736.497 L 1.93026 677.6 C 1.94879 615.772 0.499133 553.654 2.12671 491.861 z" data-c-fill="5924000000000"/><path fill="rgb(50,29,107)" fill-opacity=".075" d="M 0 1343.59 L 1.13831 1343.93 C 1.10323 1357.99 1.46471 1372.18 0.971261 1386.23 L 0 1385.99 L 0 1343.59 z" data-c-fill="321d6b" data-o-fill=".075"/></svg>